<svg width="572" height="492" viewBox="0 0 572 492" fill="none" xmlns="http://www.w3.org/2000/svg">
<path d="M514.686 454.281H476.796V454.612H514.686V454.281Z" fill="#EBEBEB"/>
<path d="M378.915 457.878H368.974V458.209H378.915V457.878Z" fill="#EBEBEB"/>
<path d="M475.653 442.008H453.699V442.338H475.653V442.008Z" fill="#EBEBEB"/>
<path d="M109.424 444.23H60.0142V444.56H109.424V444.23Z" fill="#EBEBEB"/>
<path d="M126.858 444.23H119.617V444.56H126.858V444.23Z" fill="#EBEBEB"/>
<path d="M257.572 449.811H150.402V450.141H257.572V449.811Z" fill="#EBEBEB"/>
<path d="M271.128 374.016H50.233C48.5025 374.012 46.8439 373.215 45.6214 371.799C44.3988 370.383 43.7122 368.465 43.7122 366.464V7.48561C43.7272 5.49653 44.4205 3.59465 45.6414 2.19307C46.8624 0.791488 48.5123 0.00340739 50.233 0H271.128C272.86 0 274.522 0.795627 275.747 2.21185C276.972 3.62808 277.66 5.54889 277.66 7.55173V366.464C277.66 368.467 276.972 370.388 275.747 371.804C274.522 373.22 272.86 374.016 271.128 374.016V374.016ZM50.233 0.26451C48.5783 0.268013 46.9925 1.03035 45.8236 2.38419C44.6547 3.73803 43.9982 5.57274 43.9982 7.48561V366.464C43.9982 368.377 44.6547 370.212 45.8236 371.565C46.9925 372.919 48.5783 373.682 50.233 373.685H271.128C272.784 373.682 274.371 372.92 275.541 371.566C276.712 370.213 277.371 368.378 277.374 366.464V7.48561C277.371 5.57153 276.712 3.73684 275.541 2.38338C274.371 1.02992 272.784 0.268006 271.128 0.26451H50.233Z" fill="#EBEBEB"/>
<path d="M518.587 374.016H297.68C295.949 374.012 294.289 373.216 293.065 371.8C291.84 370.385 291.151 368.466 291.148 366.464V7.48561C291.166 5.49532 291.862 3.59346 293.085 2.19224C294.307 0.791026 295.958 0.00337023 297.68 0H518.587C520.305 0.00688318 521.952 0.796502 523.171 2.19771C524.389 3.59892 525.081 5.49882 525.096 7.48561V366.464C525.096 368.462 524.411 370.379 523.191 371.795C521.971 373.21 520.315 374.009 518.587 374.016V374.016ZM297.68 0.26451C296.025 0.268006 294.438 1.02992 293.267 2.38338C292.096 3.73684 291.437 5.57153 291.434 7.48561V366.464C291.437 368.378 292.096 370.213 293.267 371.566C294.438 372.92 296.025 373.682 297.68 373.685H518.587C520.242 373.682 521.829 372.92 523 371.566C524.171 370.213 524.83 368.378 524.833 366.464V7.48561C524.83 5.57153 524.171 3.73684 523 2.38338C521.829 1.02992 520.242 0.268006 518.587 0.26451H297.68Z" fill="#EBEBEB"/>
<path d="M572 433.001H0V433.332H572V433.001Z" fill="#EBEBEB"/>
<path d="M139.98 344.298C141.124 345.938 142.268 347.869 141.902 349.919C141.644 351.041 141.03 352.009 140.181 352.63C139.333 353.25 138.313 353.477 137.326 353.265C136.35 353.014 135.446 352.48 134.698 351.714C133.949 350.949 133.381 349.976 133.047 348.887C132.601 347.565 132.429 346.11 131.983 344.774C130.702 340.899 127.407 338.532 124.295 336.442C124.101 340.41 126.069 344.219 128.402 347.208C130.736 350.197 133.505 352.749 135.518 356.029C137.531 359.309 138.687 363.7 137.303 367.39C137.208 367.704 137.042 367.982 136.822 368.197C136.478 368.431 136.067 368.503 135.678 368.395C132.04 367.826 129.558 363.872 127.956 360.05C126.355 356.227 125.039 351.969 122.087 349.469C123.392 354.535 126.892 358.423 128.757 363.237C129.921 366.358 130.377 369.771 130.081 373.152C129.784 376.534 128.746 379.772 127.064 382.559C126.944 382.809 126.78 383.028 126.583 383.201C126.386 383.374 126.16 383.498 125.92 383.564C125.211 383.644 124.696 382.811 124.398 382.07C121.424 374.558 123.609 364.427 118.461 358.714L116.081 364.718C115.671 365.98 115.031 367.126 114.205 368.078C113.786 368.545 113.251 368.849 112.675 368.949C112.099 369.049 111.51 368.938 110.991 368.633C109.458 367.496 109.847 364.824 110.522 362.853C112.226 357.792 114.329 352.923 116.802 348.305C115.075 347.366 113.37 349.416 112.066 351.083C110.762 352.749 108.394 354.204 107.227 352.405C106.88 351.81 106.719 351.097 106.769 350.382C106.769 346.904 108.84 343.875 111.025 341.481C113.21 339.087 115.715 336.932 117.18 333.877C115.538 334.456 113.79 334.511 112.123 334.035C110.51 333.387 109.206 331.258 109.835 329.433C111.779 326.88 113.933 324.55 116.265 322.476C118.884 321.511 121.447 324.315 123.437 325.981C129.638 331.2 135.202 337.362 139.98 344.298V344.298Z" fill="#EBEBEB"/>
<path d="M125.52 373.844C125.52 372.839 125.52 371.847 125.52 370.855C125.234 342.367 120.875 331.734 119.8 331.43L119.674 330.107C119.865 330.084 120.057 330.112 120.238 330.187C120.418 330.263 120.581 330.385 120.715 330.544C123.003 332.805 126.435 345.409 126.721 370.828C126.721 371.82 126.721 372.812 126.721 373.817L125.52 373.844Z" fill="#E0E0E0"/>
<path d="M125.508 388.551C125.508 387.704 125.508 375.576 125.508 371.014V369.228C125.508 341.957 129.1 328.414 131.503 325.968C131.639 325.807 131.803 325.682 131.985 325.602C132.167 325.522 132.361 325.489 132.555 325.505L132.407 326.827C131.263 327.158 126.687 338.585 126.687 369.241V371.027C126.687 375.59 126.687 387.717 126.687 388.537L125.508 388.551Z" fill="#E0E0E0"/>
<path d="M141.673 432.604H110.773L107.742 389.635H144.693L141.673 432.604Z" fill="#F0F0F0"/>
<path d="M147.096 391.857H105.042L104.287 386.143H147.851L147.096 391.857Z" fill="#FAFAFA"/>
<path d="M84.8505 320.466C82.7112 320.4 80.2745 320.545 78.8674 322.357C78.139 323.434 77.7855 324.788 77.8766 326.151C77.9676 327.514 78.4965 328.789 79.3593 329.724C80.2616 330.615 81.3446 331.226 82.5071 331.502C83.6695 331.777 84.8734 331.707 86.006 331.298C87.4245 330.835 88.7287 329.975 90.1472 329.525C94.2313 328.203 98.5328 330.107 102.457 332.012C99.2992 335.093 94.8262 335.609 90.7078 335.186C86.5894 334.763 82.5168 333.546 78.3869 333.691C74.2571 333.837 69.784 335.688 67.7935 339.894C67.6046 340.221 67.4941 340.6 67.4732 340.992C67.5319 341.54 67.7692 342.041 68.1367 342.394C71.2026 345.978 76.2133 345.885 80.4919 344.907C84.7704 343.928 89.2092 342.341 93.3962 343.756C88.3283 345.938 82.6312 344.867 77.3802 346.269C73.9912 347.22 70.868 349.155 68.3058 351.891C65.7435 354.626 63.8269 358.071 62.737 361.901C62.6184 362.209 62.5571 362.543 62.5571 362.88C62.5571 363.217 62.6184 363.551 62.737 363.859C63.1717 364.705 64.2242 364.679 65.025 364.467C73.2961 362.377 80.0572 352.749 88.4198 354.31L85.1937 361.213C84.4469 362.563 83.9628 364.083 83.7752 365.67C83.6793 366.472 83.806 367.288 84.137 368.001C84.468 368.714 84.9862 369.287 85.617 369.638C87.6419 370.511 89.5409 368.144 90.6849 366.028C93.6348 360.538 96.1431 354.748 98.1781 348.729C100.192 349.945 99.7568 353.331 99.3221 355.897C98.8874 358.463 99.3221 362.139 101.61 362.179C102.346 362.134 103.048 361.803 103.601 361.24C106.438 358.714 107.467 354.336 107.868 350.223C108.268 346.11 108.245 341.825 109.71 338.043C110.404 340.262 111.61 342.22 113.199 343.703C114.881 345.026 117.546 344.92 118.587 342.896C119.299 338.945 119.682 334.923 119.731 330.888C118.656 327.33 114.526 326.51 111.723 325.531C103.007 322.437 93.9657 320.733 84.8505 320.466V320.466Z" fill="#F5F5F5"/>
<path d="M138.973 366.345C139.923 368.554 141.158 370.934 143.217 371.556C144.384 371.798 145.586 371.524 146.587 370.789C147.587 370.054 148.311 368.912 148.617 367.588C148.875 366.25 148.834 364.859 148.498 363.544C148.161 362.23 147.541 361.036 146.695 360.076C145.688 358.846 144.407 357.907 143.4 356.677C140.46 353.133 139.968 347.829 139.534 342.936C143.366 344.721 145.871 349.046 147.473 353.516C149.075 357.986 150.059 362.642 152.106 366.742C154.154 370.842 157.643 374.545 161.773 374.677C162.111 374.719 162.452 374.65 162.757 374.479C163.148 374.166 163.422 373.693 163.523 373.156C164.828 368.342 162.379 363.263 159.645 359.349C156.911 355.434 153.593 351.652 152.713 346.718C156.762 350.871 158.616 357.193 162.162 361.914C164.476 364.931 167.419 367.214 170.71 368.547C174.001 369.88 177.533 370.219 180.969 369.532C181.261 369.512 181.546 369.421 181.806 369.267C182.066 369.112 182.296 368.896 182.479 368.633C182.914 367.8 182.399 366.742 181.85 365.988C176.371 358.516 165.834 356.135 163.123 346.864H169.907C171.288 346.988 172.676 346.772 173.98 346.229C174.624 345.938 175.174 345.423 175.553 344.755C175.932 344.087 176.122 343.298 176.096 342.499C175.821 340.026 173.122 339.193 170.971 339.021C165.392 338.582 159.79 338.733 154.234 339.471C154.234 336.826 157.014 335.715 159.188 334.987C161.361 334.26 163.947 331.998 162.906 329.697C162.528 328.968 161.947 328.408 161.258 328.11C157.998 326.391 154.165 327.409 150.836 328.93C147.507 330.451 144.247 332.461 140.678 332.752C142.037 330.994 142.965 328.848 143.366 326.536C143.572 324.209 142.222 321.524 140.22 321.418C136.869 322.549 133.621 324.05 130.519 325.902C128.311 328.679 129.615 333.268 130.176 336.574C131.924 346.914 134.884 356.93 138.973 366.345V366.345Z" fill="#F0F0F0"/>
<path opacity="0.2" d="M308.64 42.8108C308.64 43.2737 308.64 43.7233 308.64 44.1333V78.3608H267.959L265.797 75.9934L267.959 42.7711C267.959 36.5346 270.102 30.5535 273.917 26.1436C277.731 21.7337 282.905 19.2562 288.299 19.2562C293.694 19.2562 298.868 21.7337 302.682 26.1436C306.497 30.5535 308.64 36.5346 308.64 42.7711V42.8108Z" fill="black"/>
<path d="M306.478 40.4434C306.478 40.8931 306.478 41.356 306.478 41.766V75.9934H265.797V40.4434C265.797 37.3554 266.323 34.2976 267.345 31.4447C268.367 28.5917 269.866 25.9995 271.754 23.8159C273.643 21.6324 275.885 19.9003 278.353 18.7185C280.821 17.5368 283.466 16.9286 286.137 16.9286C288.808 16.9286 291.453 17.5368 293.921 18.7185C296.389 19.9003 298.631 21.6324 300.52 23.8159C302.409 25.9995 303.907 28.5917 304.929 31.4447C305.951 34.2976 306.478 37.3554 306.478 40.4434V40.4434Z" fill="#F0F0F0"/>
<path d="M300.92 43.6333C302.181 34.6499 296.904 26.1852 289.133 24.727C281.363 23.2688 274.041 29.3692 272.78 38.3527C271.518 47.3361 276.795 55.8008 284.566 57.259C292.336 58.7172 299.658 52.6168 300.92 43.6333Z" fill="#E0E0E0"/>
<path d="M285.188 57.1604C293.06 57.1604 299.442 49.7825 299.442 40.6815C299.442 31.5804 293.06 24.2026 285.188 24.2026C277.315 24.2026 270.934 31.5804 270.934 40.6815C270.934 49.7825 277.315 57.1604 285.188 57.1604Z" fill="white"/>
<path d="M286.138 41.7792C286.138 42.0408 286.071 42.2965 285.945 42.514C285.819 42.7315 285.64 42.901 285.431 43.0011C285.222 43.1012 284.992 43.1274 284.77 43.0763C284.549 43.0253 284.345 42.8994 284.185 42.7144C284.025 42.5294 283.916 42.2938 283.872 42.0372C283.827 41.7807 283.85 41.5148 283.937 41.2731C284.023 41.0314 284.17 40.8249 284.358 40.6796C284.546 40.5342 284.767 40.4567 284.994 40.4567C285.297 40.4567 285.588 40.596 285.803 40.844C286.017 41.0921 286.138 41.4284 286.138 41.7792Z" fill="#E0E0E0"/>
<path d="M284.844 42.2817L279.925 36.9254L280.406 36.3303L284.867 41.184L292.864 33.0239L293.322 33.6191L284.844 42.2817Z" fill="#E0E0E0"/>
<path d="M151.958 196.781C145.975 198.104 134.798 198.937 121.951 198.937C109.103 198.937 97.9266 198.078 91.9434 196.781C91.673 197.5 91.2845 198.152 90.7994 198.699C88.8432 200.948 84.9879 200.141 83.741 198.699C82.494 197.258 81.7962 192.801 83.741 190.552C84.1642 190.063 84.885 190.01 85.1481 189.428C87.2073 184.614 83.535 175.409 83.535 165.464C83.535 155.518 87.2073 146.34 85.1366 141.512C84.313 139.581 82.2881 138.616 82.2881 136.315C82.2881 134.014 84.313 133.061 85.1366 131.13C87.1958 126.303 83.535 117.098 83.535 107.166C83.535 97.2335 87.2073 88.0286 85.1481 83.2013C84.8964 82.6326 84.1642 82.5665 83.741 82.0904C81.7962 79.8421 82.494 75.3851 83.741 73.9435C84.9879 72.5019 88.8432 71.6952 90.7994 73.9435C91.2799 74.5122 91.3257 75.4909 91.9434 75.8612C97.2745 79.2469 109.103 73.6922 121.951 73.6922C134.798 73.6922 146.627 79.2469 151.958 75.8612C152.53 75.4909 152.564 74.5387 153.102 73.9435C155.046 71.6952 158.913 72.5019 160.149 73.9435C161.384 75.3851 162.105 79.8421 160.149 82.0904C159.737 82.5665 159.005 82.6326 158.753 83.2013C156.694 88.0286 160.366 97.2335 160.366 107.166C160.366 117.098 156.694 126.303 158.753 131.13C159.588 133.061 161.613 134.014 161.613 136.315C161.613 138.616 159.588 139.581 158.753 141.512C156.694 146.34 160.366 155.545 160.366 165.464C160.366 175.383 156.694 184.614 158.753 189.428C159.005 190.01 159.737 190.063 160.149 190.552C162.105 192.801 161.396 197.258 160.149 198.699C158.902 200.141 155.046 200.948 153.102 198.699C152.609 198.159 152.22 197.506 151.958 196.781Z" fill="#E0E0E0"/>
<path d="M154.234 194.15C148.251 195.472 137.074 196.319 124.227 196.319C111.38 196.319 100.203 195.446 94.2086 194.15C93.9467 194.874 93.557 195.527 93.0646 196.067C91.1198 198.316 87.2645 197.509 86.0175 196.067C84.7706 194.626 84.0727 190.169 86.0175 187.92C86.4294 187.444 87.1615 187.378 87.4132 186.81C89.4724 181.982 85.8002 172.777 85.8002 162.845C85.8002 152.913 89.4724 143.708 87.4132 138.88C86.5895 136.95 84.5532 135.984 84.5532 133.696C84.5532 131.408 86.5895 130.429 87.4132 128.499C89.5182 123.671 85.8002 114.466 85.8002 104.481C85.8002 94.4959 89.4724 85.3439 87.4132 80.5166C87.173 79.9479 86.4294 79.895 86.0175 79.4056C84.0727 77.1573 84.7706 72.7003 86.0175 71.2588C87.2645 69.8172 91.1198 69.0104 93.0646 71.2588C93.5565 71.8275 93.5908 72.8194 94.2086 73.1765C99.5511 76.5622 111.369 71.0075 124.227 71.0075C137.086 71.0075 148.892 76.5622 154.234 73.1765C154.806 72.8194 154.841 71.8539 155.378 71.2588C157.323 69.0104 161.178 69.8172 162.425 71.2588C163.672 72.7003 164.37 77.1573 162.425 79.4056C162.013 79.895 161.281 79.9479 161.03 80.5166C158.97 85.3439 162.643 94.5488 162.643 104.481C162.643 114.413 158.97 123.618 161.03 128.446C161.853 130.377 163.89 131.342 163.89 133.643C163.89 135.944 161.853 136.897 161.03 138.828C158.97 143.655 162.643 152.86 162.643 162.792C162.643 172.724 158.97 181.929 161.03 186.757C161.281 187.325 162.013 187.391 162.425 187.868C164.37 190.116 163.672 194.573 162.425 196.014C161.178 197.456 157.323 198.263 155.378 196.014C154.891 195.49 154.502 194.855 154.234 194.15Z" fill="#FAFAFA"/>
<path d="M94.1856 185.434H154.246V81.9449L94.1856 81.9449L94.1856 185.434Z" fill="#EBEBEB"/>
<path d="M356.551 81.4952C356.551 81.4952 386.569 47.6116 427.284 47.6116C467.999 47.6116 494.208 81.4952 494.208 81.4952V351.294H356.551V81.4952Z" fill="#F5F5F5"/>
<path d="M490.776 82.7913C473.317 63.2222 449.954 52.2787 425.636 52.2787C401.319 52.2787 377.956 63.2222 360.497 82.7913V347.829H490.776V82.7913ZM486.703 343.095H364.547V84.8016C381.123 66.9276 402.946 56.9877 425.614 56.9877C448.281 56.9877 470.104 66.9276 486.68 84.8016L486.703 343.095Z" fill="#E0E0E0"/>
<path d="M497.869 356.029H353.347V79.3527L354.388 78.136C373.28 56.3053 398.897 44.0416 425.608 44.0416C452.319 44.0416 477.936 56.3053 496.828 78.136L497.869 79.3527V356.029ZM360.474 347.829H490.776V82.7913C473.317 63.2222 449.954 52.2787 425.637 52.2787C401.319 52.2787 377.956 63.2222 360.497 82.7913L360.474 347.829Z" fill="#EBEBEB"/>
<path d="M444.948 56.4198V77.9508H406.269V56.4198C403.867 57.0149 401.487 57.7423 399.153 58.5094V77.9508H367.51C365.623 79.723 363.769 81.5746 361.996 83.5452V86.1903H399.153V167.236H361.996V175.462H399.153V256.918H361.996V265.157H399.153V346.031H406.269V265.157H444.948V346.031H452.075V265.157H489.22V256.918H452.075V175.462H489.22V167.236H452.075V86.1903H489.22V83.5452C487.447 81.5746 485.605 79.723 483.718 77.9508H452.075V58.5094C449.729 57.7027 447.304 57.0149 444.948 56.4198ZM444.948 256.918H406.269V175.462H444.948V256.918ZM444.948 167.236H406.269V86.1903H444.948V167.236Z" fill="#E6E6E6"/>
<path d="M509.469 356.717H340.375V373.566H509.469V356.717Z" fill="#F0F0F0"/>
<path d="M286 492C408.502 492 507.81 485.297 507.81 477.029C507.81 468.76 408.502 462.058 286 462.058C163.498 462.058 64.1899 468.76 64.1899 477.029C64.1899 485.297 163.498 492 286 492Z" fill="#F5F5F5"/>
<path d="M428.542 286.939H124.856L141.696 64.3683H445.382L428.542 286.939Z" fill="#5E1457"/>
<path d="M424.424 304.357H125.096C123.128 304.397 121.175 303.952 119.366 303.051C117.558 302.15 115.937 300.815 114.61 299.133C113.283 297.451 112.281 295.462 111.671 293.298C111.061 291.134 110.856 288.845 111.071 286.582L127.808 65.413C128.237 60.5977 130.174 56.1298 133.255 52.851C136.335 49.5722 140.346 47.7087 144.533 47.6116H443.792C445.76 47.5717 447.714 48.017 449.522 48.9178C451.33 49.8185 452.952 51.1542 454.278 52.8358C455.605 54.5174 456.607 56.5064 457.217 58.6705C457.828 60.8345 458.032 63.124 457.817 65.3866L441.081 286.582C440.648 291.38 438.718 295.83 435.652 299.102C432.587 302.374 428.595 304.242 424.424 304.357Z" fill="#263238"/>
<path d="M424.413 286.939H137.555L154.406 64.3683H441.252L424.413 286.939Z" fill="#5E1457"/>
<path d="M424.355 287.019H137.532L154.371 64.4608H441.195L424.355 287.019Z" fill="white"/>
<path d="M439.067 92.6707H152.232L154.371 64.4608H441.195L439.067 92.6707Z" fill="#5E1457"/>
<path d="M282.528 167.45C286.161 163.429 286.524 157.052 283.339 153.205C280.154 149.359 274.626 149.5 270.994 153.52C267.361 157.541 266.998 163.918 270.183 167.765C273.368 171.611 278.895 171.47 282.528 167.45Z" fill="#5E1457"/>
<path d="M168.766 209.196C172.387 205.184 172.746 198.824 169.568 194.99C166.39 191.156 160.878 191.3 157.257 195.312C153.636 199.324 153.277 205.684 156.455 209.518C159.633 213.352 165.145 213.207 168.766 209.196Z" fill="#263238"/>
<path d="M256.13 223.312C255.887 226.041 254.789 228.573 253.041 230.43C251.294 232.286 249.019 233.339 246.646 233.39C245.53 233.412 244.423 233.16 243.398 232.649C242.372 232.139 241.453 231.381 240.701 230.428C239.949 229.474 239.381 228.347 239.035 227.12C238.689 225.893 238.574 224.594 238.696 223.312C238.938 220.582 240.037 218.05 241.784 216.194C243.532 214.337 245.806 213.284 248.179 213.234C249.295 213.211 250.403 213.464 251.428 213.974C252.453 214.485 253.372 215.242 254.125 216.196C254.877 217.149 255.445 218.277 255.791 219.504C256.136 220.731 256.252 222.029 256.13 223.312V223.312Z" fill="#5E1457"/>
<path d="M163.306 143.866L164.118 142.107C164.797 142.63 165.59 142.919 166.406 142.941C167.264 142.941 167.619 142.663 167.653 142.253C167.756 140.93 163.523 141.883 163.763 138.748C163.878 137.241 165.033 135.997 167.195 135.997C168.102 135.98 168.997 136.235 169.792 136.738L169.026 138.523C168.426 138.11 167.744 137.882 167.047 137.862C166.177 137.862 165.834 138.206 165.8 138.629C165.708 139.952 169.929 138.947 169.701 142.068C169.586 143.549 168.419 144.805 166.269 144.805C165.223 144.833 164.193 144.507 163.306 143.866V143.866Z" fill="#263238"/>
<path d="M198.187 144.633L198.495 140.15L196.345 143.8H195.418L193.816 140.269L193.485 144.633H191.574L192.192 136.222H193.897L196.093 141.116L199.056 136.222H200.761L200.143 144.686L198.187 144.633Z" fill="#263238"/>
<path d="M222.371 138.074H220.083L220.232 136.169H226.787L226.65 138.074H224.362L223.858 144.686H221.788L222.371 138.074Z" fill="#263238"/>
<path d="M259.779 136.222L256.771 144.686H254.551L253.545 139.542L251.68 144.634H249.461L247.722 136.169H249.861L250.925 141.578L252.881 136.169H254.78L255.844 141.618L257.8 136.169L259.779 136.222Z" fill="#263238"/>
<path d="M277.065 138.074H274.777L274.926 136.169H281.481L281.424 138.074H279.136L278.633 144.686H276.562L277.065 138.074Z" fill="#263238"/>
<path d="M304.922 138.021L304.785 139.886H308.022L307.873 141.737H304.647L304.43 144.634H302.359L303 136.169H308.72L308.571 138.021H304.922Z" fill="#263238"/>
<path d="M329.243 143.866L330.067 142.107C330.762 142.642 331.577 142.931 332.412 142.941C333.27 142.941 333.625 142.663 333.659 142.253C333.762 140.93 329.529 141.883 329.758 138.748C329.872 137.241 331.039 135.997 333.19 135.997C334.097 135.98 334.991 136.235 335.787 136.738L335.02 138.523C334.42 138.112 333.739 137.884 333.041 137.862C332.172 137.862 331.829 138.206 331.794 138.629C331.703 139.952 335.924 138.947 335.684 142.068C335.581 143.549 334.414 144.805 332.252 144.805C331.191 144.838 330.146 144.512 329.243 143.866V143.866Z" fill="#263238"/>
<path d="M222.142 157.013L221.501 165.477H219.431L219.934 158.864H218.573L218.71 157.013H222.142Z" fill="#263238"/>
<path d="M251.508 163.572L251.36 165.477H245.64L245.754 163.969L248.717 161.007C249.358 160.385 249.472 160.002 249.495 159.684C249.518 159.367 249.243 158.811 248.614 158.811C248.347 158.81 248.083 158.884 247.846 159.027C247.609 159.17 247.405 159.377 247.253 159.631L245.788 158.639C246.149 158.065 246.627 157.603 247.18 157.296C247.734 156.989 248.344 156.846 248.957 156.88C250.639 156.88 251.726 157.885 251.6 159.459C251.539 159.994 251.378 160.508 251.129 160.964C250.881 161.421 250.549 161.81 250.158 162.104L248.66 163.572H251.508Z" fill="#263238"/>
<path d="M278.896 162.819C278.782 164.26 277.752 165.636 275.464 165.636C274.489 165.66 273.526 165.371 272.684 164.802L273.576 163.004C274.158 163.467 274.849 163.712 275.556 163.705C276.253 163.705 276.7 163.387 276.78 162.819C276.86 162.25 276.516 161.999 275.727 161.999H274.858L274.972 160.491L276.402 158.864H273.531L273.679 157.013H278.965L278.85 158.507L277.191 160.398C277.441 160.426 277.684 160.511 277.905 160.649C278.126 160.786 278.322 160.972 278.481 161.197C278.639 161.422 278.757 161.682 278.829 161.96C278.9 162.238 278.923 162.53 278.896 162.819V162.819Z" fill="#263238"/>
<path d="M307.427 163.85H306.283L306.157 165.477H304.143L304.258 163.85H300.391L300.517 162.29L304.201 156.999H306.34L302.988 161.946H304.475L304.578 160.504H306.592L306.477 161.946H307.621L307.427 163.85Z" fill="#263238"/>
<path d="M333.705 162.752C333.59 164.26 332.504 165.636 330.273 165.636C329.301 165.662 328.342 165.373 327.504 164.802L328.385 163.004C328.967 163.467 329.658 163.712 330.364 163.705C331.062 163.705 331.508 163.374 331.6 162.819C331.691 162.263 331.36 161.959 330.239 161.959H328.328L329.06 157.013H333.728L333.59 158.864H330.616L330.433 160.094H330.925C333.064 160.094 333.819 161.258 333.705 162.752Z" fill="#263238"/>
<path d="M166.692 183.596C166.595 184.445 166.218 185.218 165.641 185.755C165.064 186.292 164.33 186.551 163.592 186.479C161.544 186.479 160.309 185.051 160.514 182.313C160.523 181.684 160.641 181.064 160.86 180.489C161.079 179.913 161.396 179.395 161.792 178.963C162.187 178.532 162.654 178.196 163.163 177.977C163.673 177.757 164.215 177.657 164.759 177.684C165.496 177.651 166.226 177.862 166.864 178.292L165.983 180.012C165.597 179.705 165.135 179.552 164.667 179.575C164.179 179.545 163.699 179.732 163.326 180.099C162.954 180.466 162.717 180.983 162.665 181.546C163.153 181.114 163.756 180.894 164.37 180.924C164.682 180.887 164.997 180.931 165.292 181.052C165.588 181.173 165.856 181.368 166.079 181.624C166.301 181.879 166.471 182.189 166.577 182.53C166.683 182.871 166.723 183.235 166.692 183.596V183.596ZM164.679 183.702C164.694 183.557 164.68 183.411 164.639 183.274C164.597 183.136 164.529 183.012 164.44 182.91C164.35 182.808 164.242 182.731 164.123 182.684C164.003 182.638 163.877 182.624 163.752 182.643C163.486 182.621 163.222 182.721 163.019 182.922C162.816 183.122 162.689 183.407 162.665 183.715C162.608 184.336 162.974 184.773 163.603 184.773C163.739 184.793 163.877 184.781 164.009 184.737C164.141 184.694 164.263 184.619 164.369 184.519C164.475 184.419 164.562 184.295 164.625 184.154C164.689 184.013 164.726 183.859 164.736 183.702H164.679Z" fill="#263238"/>
<path d="M194.629 177.856L194.514 179.35L191.414 186.307H189.126L192.089 179.694H190.167L190.064 181.017H188.302L188.542 177.816L194.629 177.856Z" fill="#263238"/>
<path d="M223.286 183.834C223.171 185.46 221.799 186.479 219.854 186.479C217.909 186.479 216.754 185.447 216.879 183.834C216.907 183.419 217.026 183.019 217.227 182.674C217.427 182.329 217.702 182.049 218.023 181.863C217.793 181.672 217.611 181.413 217.496 181.113C217.382 180.813 217.339 180.483 217.371 180.157C217.486 178.663 218.744 177.697 220.472 177.697C222.199 177.697 223.32 178.663 223.206 180.157C223.176 180.503 223.078 180.837 222.92 181.133C222.761 181.429 222.546 181.679 222.291 181.863C222.613 182.032 222.882 182.312 223.06 182.665C223.238 183.018 223.317 183.427 223.286 183.834V183.834ZM221.215 183.768C221.215 183.106 220.849 182.71 220.197 182.71C219.924 182.676 219.651 182.768 219.437 182.967C219.223 183.165 219.085 183.453 219.053 183.768C219.053 184.416 219.408 184.812 220.071 184.812C220.343 184.842 220.615 184.749 220.829 184.551C221.042 184.354 221.181 184.068 221.215 183.754V183.768ZM219.511 180.263C219.511 180.818 219.785 181.149 220.311 181.149C220.424 181.164 220.538 181.152 220.647 181.116C220.756 181.079 220.858 181.018 220.946 180.935C221.035 180.853 221.108 180.751 221.162 180.635C221.216 180.52 221.25 180.393 221.261 180.263C221.261 179.707 220.964 179.377 220.449 179.377C220.225 179.351 220 179.428 219.825 179.591C219.649 179.754 219.537 179.991 219.511 180.25V180.263Z" fill="#263238"/>
<path d="M250.536 181.85C250.528 182.48 250.41 183.101 250.19 183.677C249.97 184.254 249.652 184.773 249.255 185.204C248.858 185.636 248.39 185.971 247.879 186.19C247.369 186.409 246.825 186.507 246.281 186.479C245.547 186.51 244.821 186.299 244.187 185.87L245.068 184.151C245.454 184.458 245.916 184.611 246.383 184.588C246.868 184.612 247.342 184.423 247.711 184.06C248.08 183.697 248.317 183.187 248.374 182.63C247.887 183.051 247.289 183.266 246.681 183.239C246.374 183.269 246.065 183.221 245.775 183.099C245.486 182.977 245.223 182.783 245.005 182.531C244.787 182.279 244.62 181.975 244.514 181.64C244.408 181.306 244.367 180.949 244.393 180.594C244.49 179.749 244.863 178.98 245.435 178.444C246.008 177.908 246.736 177.645 247.47 177.71C249.518 177.684 250.754 179.112 250.536 181.85ZM248.397 180.448C248.397 179.826 248.088 179.39 247.459 179.39C247.194 179.368 246.932 179.469 246.73 179.669C246.529 179.87 246.404 180.155 246.383 180.461C246.368 180.606 246.382 180.752 246.424 180.889C246.465 181.026 246.533 181.151 246.622 181.253C246.712 181.355 246.82 181.432 246.94 181.478C247.059 181.525 247.186 181.539 247.31 181.519C247.579 181.545 247.845 181.447 248.051 181.246C248.256 181.045 248.385 180.758 248.408 180.448H248.397Z" fill="#263238"/>
<path d="M275.258 177.856L274.617 186.307H272.546L273.05 179.694H271.688L271.826 177.856H275.258Z" fill="#263238"/>
<path d="M276.036 182.075C276.241 179.284 277.729 177.684 279.605 177.684C281.481 177.684 282.694 179.284 282.488 182.075C282.282 184.865 280.795 186.479 278.93 186.479C277.065 186.479 275.83 184.879 276.036 182.075ZM280.406 182.075C280.543 180.303 280.108 179.641 279.456 179.641C278.804 179.641 278.255 180.303 278.118 182.075C277.98 183.847 278.415 184.522 279.079 184.522C279.742 184.522 280.28 183.834 280.406 182.075V182.075Z" fill="#263238"/>
<path d="M302.6 177.856L301.959 186.307H299.888L300.392 179.694H299.03L299.179 177.856H302.6Z" fill="#263238"/>
<path d="M306.844 177.856L306.203 186.307H304.132L304.636 179.694H303.274L303.412 177.856H306.844Z" fill="#263238"/>
<path d="M329.952 177.856L329.311 186.307H327.241L327.744 179.694H326.383L326.52 177.856H329.952Z" fill="#263238"/>
<path d="M336.21 184.416L336.061 186.307H330.341L330.456 184.812L333.419 181.85C334.059 181.228 334.174 180.832 334.197 180.527C334.197 179.985 333.945 179.655 333.316 179.655C333.048 179.653 332.785 179.727 332.547 179.87C332.31 180.013 332.107 180.22 331.954 180.475L330.49 179.483C330.85 178.908 331.329 178.447 331.882 178.14C332.435 177.832 333.046 177.69 333.659 177.724C335.341 177.724 336.427 178.729 336.302 180.289C336.241 180.825 336.081 181.338 335.832 181.795C335.583 182.252 335.252 182.64 334.86 182.934L333.361 184.416H336.21Z" fill="#263238"/>
<path d="M162.448 198.686L161.808 207.15H159.737L160.24 200.537H158.879L159.016 198.686H162.448Z" fill="white"/>
<path d="M168.717 204.505C168.614 205.933 167.573 207.322 165.285 207.322C164.308 207.35 163.343 207.057 162.505 206.476L163.397 204.677C163.976 205.138 164.662 205.383 165.365 205.378C166.074 205.378 166.509 205.074 166.6 204.505C166.692 203.936 166.337 203.672 165.536 203.672H164.736L164.85 202.164L166.28 200.537H163.363L163.5 198.686H168.797L168.682 200.18L167.024 202.072C167.274 202.1 167.517 202.185 167.739 202.323C167.96 202.461 168.156 202.649 168.314 202.876C168.471 203.103 168.588 203.364 168.658 203.644C168.727 203.923 168.747 204.216 168.717 204.505Z" fill="white"/>
<path d="M190.247 198.686L189.606 207.15H187.536L188.028 200.537H186.678L186.815 198.686H190.247Z" fill="#263238"/>
<path d="M197.729 205.524H196.585L196.459 207.15H194.48L194.594 205.524H190.728L190.842 203.963L194.526 198.673H196.676L193.336 203.672H194.812L194.926 202.23H196.882L196.768 203.672H197.912L197.729 205.524Z" fill="#263238"/>
<path d="M218.984 198.686L218.344 207.15H216.273L216.776 200.537H215.415L215.552 198.686H218.984Z" fill="#263238"/>
<path d="M225.368 204.426C225.254 205.933 224.167 207.322 221.936 207.322C220.962 207.352 220.001 207.058 219.167 206.476L220.048 204.677C220.627 205.138 221.314 205.383 222.016 205.378C222.725 205.378 223.16 205.061 223.263 204.492C223.366 203.923 223.08 203.672 221.936 203.672H219.945L220.689 198.726H225.368L225.219 200.577H222.279L222.085 201.807H222.577C224.762 201.767 225.517 202.931 225.368 204.426Z" fill="#263238"/>
<path d="M246.326 198.686L245.685 207.15H243.672L244.164 200.537H242.757L242.906 198.686H246.326Z" fill="#263238"/>
<path d="M253.259 204.426C253.162 205.273 252.787 206.046 252.213 206.584C251.638 207.123 250.907 207.387 250.17 207.322C248.122 207.322 246.887 205.894 247.093 203.143C247.101 202.514 247.219 201.894 247.438 201.319C247.658 200.743 247.974 200.225 248.37 199.793C248.766 199.362 249.232 199.026 249.741 198.807C250.251 198.587 250.793 198.487 251.337 198.514C252.075 198.485 252.806 198.701 253.442 199.136L252.561 200.855C252.177 200.544 251.714 200.39 251.245 200.418C250.757 200.388 250.277 200.576 249.904 200.942C249.532 201.309 249.295 201.827 249.243 202.389C249.73 201.954 250.333 201.729 250.948 201.754C251.258 201.722 251.571 201.769 251.864 201.891C252.158 202.014 252.424 202.21 252.644 202.465C252.865 202.72 253.034 203.027 253.14 203.366C253.246 203.705 253.287 204.067 253.259 204.426ZM251.245 204.532C251.26 204.387 251.247 204.241 251.205 204.104C251.164 203.966 251.096 203.842 251.006 203.74C250.917 203.638 250.808 203.561 250.689 203.514C250.57 203.468 250.443 203.454 250.319 203.474C250.044 203.44 249.769 203.534 249.555 203.735C249.34 203.936 249.204 204.227 249.175 204.545C249.159 204.692 249.173 204.841 249.216 204.981C249.259 205.121 249.329 205.248 249.42 205.352C249.512 205.455 249.624 205.533 249.746 205.579C249.868 205.625 249.997 205.637 250.124 205.616C250.26 205.634 250.398 205.62 250.529 205.575C250.66 205.53 250.782 205.454 250.887 205.353C250.991 205.251 251.077 205.126 251.139 204.985C251.201 204.844 251.237 204.689 251.245 204.532V204.532Z" fill="#263238"/>
<path d="M273.679 198.686L273.039 207.15H270.968L271.471 200.537H270.11L270.247 198.686H273.679Z" fill="#263238"/>
<path d="M280.726 198.686L280.612 200.18L277.512 207.15H275.224L278.187 200.537H276.265L276.162 201.86H274.4L274.64 198.659L280.726 198.686Z" fill="#263238"/>
<path d="M301.021 198.686L300.391 207.15H298.321L298.813 200.537H297.44L297.589 198.686H301.021Z" fill="#263238"/>
<path d="M307.988 204.651C307.873 206.277 306.5 207.296 304.556 207.296C302.611 207.296 301.455 206.251 301.581 204.651C301.612 204.237 301.732 203.839 301.933 203.494C302.133 203.15 302.405 202.869 302.725 202.68C302.496 202.491 302.314 202.234 302.199 201.936C302.085 201.639 302.041 201.311 302.073 200.987C302.187 199.479 303.446 198.514 305.173 198.514C306.901 198.514 308.022 199.479 307.907 200.987C307.876 201.331 307.778 201.663 307.619 201.956C307.46 202.249 307.246 202.497 306.992 202.68C307.313 202.85 307.581 203.131 307.76 203.483C307.938 203.836 308.017 204.244 307.988 204.651ZM305.917 204.585C305.917 203.936 305.551 203.54 304.899 203.54C304.628 203.506 304.356 203.597 304.142 203.792C303.928 203.987 303.789 204.272 303.755 204.585C303.755 205.233 304.109 205.643 304.773 205.643C305.045 205.669 305.315 205.574 305.528 205.377C305.74 205.181 305.88 204.897 305.917 204.585V204.585ZM304.212 201.093C304.212 201.648 304.487 201.979 305.013 201.979C305.126 201.994 305.24 201.982 305.349 201.946C305.458 201.909 305.56 201.848 305.648 201.765C305.736 201.683 305.81 201.581 305.864 201.466C305.918 201.35 305.951 201.224 305.963 201.093C305.963 200.524 305.665 200.194 305.15 200.194C305.038 200.181 304.924 200.194 304.815 200.233C304.707 200.271 304.606 200.334 304.519 200.417C304.432 200.501 304.36 200.604 304.307 200.72C304.255 200.836 304.222 200.963 304.212 201.093Z" fill="#263238"/>
<path d="M328.328 198.686L327.687 207.15H325.617L326.12 200.537H324.759L324.896 198.686H328.328Z" fill="#263238"/>
<path d="M335.249 202.68C335.242 203.311 335.125 203.934 334.906 204.512C334.686 205.089 334.369 205.61 333.972 206.043C333.575 206.476 333.107 206.813 332.595 207.032C332.083 207.252 331.539 207.351 330.993 207.322C330.259 207.349 329.532 207.134 328.9 206.701L329.781 204.981C330.164 205.294 330.628 205.448 331.096 205.418C331.581 205.445 332.057 205.258 332.426 204.894C332.796 204.53 333.032 204.018 333.087 203.46C332.601 203.886 332.003 204.106 331.394 204.082C331.087 204.11 330.779 204.06 330.491 203.937C330.202 203.814 329.94 203.62 329.723 203.369C329.505 203.118 329.337 202.815 329.231 202.481C329.124 202.148 329.082 201.791 329.106 201.437C329.2 200.59 329.572 199.818 330.145 199.279C330.717 198.74 331.447 198.476 332.183 198.54C334.219 198.514 335.455 199.942 335.249 202.68ZM333.11 201.291C333.167 200.657 332.801 200.22 332.172 200.22C331.906 200.198 331.644 200.299 331.443 200.499C331.241 200.7 331.117 200.985 331.096 201.291C331.079 201.437 331.092 201.585 331.132 201.723C331.173 201.862 331.241 201.989 331.33 202.092C331.42 202.196 331.529 202.274 331.649 202.321C331.769 202.368 331.897 202.382 332.023 202.363C332.29 202.385 332.553 202.285 332.756 202.084C332.959 201.884 333.086 201.599 333.11 201.291V201.291Z" fill="#263238"/>
<path d="M162.871 226.155L162.734 228.046H157.014L157.129 226.552L160.16 223.51C160.801 222.875 160.915 222.492 160.938 222.188C160.961 221.883 160.686 221.315 160.057 221.315C159.79 221.313 159.526 221.387 159.289 221.53C159.052 221.673 158.848 221.88 158.696 222.135L157.232 221.143C157.593 220.569 158.071 220.108 158.624 219.801C159.177 219.494 159.788 219.351 160.4 219.384C162.082 219.384 163.169 220.389 163.043 221.95C162.982 222.484 162.821 222.998 162.573 223.454C162.324 223.911 161.993 224.3 161.602 224.595L160.046 226.155H162.871Z" fill="#263238"/>
<path d="M163.649 223.748C163.855 220.958 165.342 219.357 167.218 219.357C169.094 219.357 170.307 220.958 170.101 223.748C169.895 226.539 168.408 228.152 166.543 228.152C164.678 228.152 163.443 226.539 163.649 223.748ZM168.019 223.748C168.156 221.976 167.721 221.315 167.069 221.315C166.417 221.315 165.925 221.976 165.731 223.748C165.536 225.52 166.028 226.195 166.692 226.195C167.355 226.195 167.882 225.534 168.019 223.748Z" fill="#263238"/>
<path d="M190.693 226.155L190.544 228.046H184.824L184.939 226.552L187.902 223.589C188.531 222.955 188.645 222.571 188.668 222.267C188.691 221.963 188.428 221.394 187.799 221.394C187.529 221.391 187.263 221.463 187.024 221.606C186.785 221.749 186.579 221.958 186.426 222.214L184.961 221.222C185.323 220.649 185.802 220.189 186.355 219.882C186.908 219.575 187.518 219.431 188.13 219.463C189.812 219.463 190.899 220.468 190.784 222.029C190.721 222.564 190.558 223.078 190.307 223.534C190.056 223.991 189.724 224.379 189.332 224.674L187.844 226.155H190.693Z" fill="#263238"/>
<path d="M194.938 219.542L194.297 228.007H192.192L192.684 221.394H191.334L191.471 219.542H194.938Z" fill="#263238"/>
<path d="M219.431 226.155L219.282 228.046H213.562L213.676 226.552L216.639 223.589C217.28 222.955 217.394 222.571 217.417 222.267C217.44 221.963 217.166 221.394 216.536 221.394C216.269 221.393 216.005 221.467 215.768 221.61C215.531 221.752 215.327 221.96 215.175 222.214L213.711 221.222C214.072 220.649 214.55 220.188 215.103 219.881C215.656 219.574 216.267 219.43 216.88 219.463C218.561 219.463 219.648 220.468 219.522 222.029C219.461 222.564 219.301 223.077 219.052 223.534C218.803 223.99 218.472 224.379 218.081 224.674L216.605 226.155H219.431Z" fill="#263238"/>
<path d="M225.7 226.155L225.551 228.046H219.831L219.945 226.552L222.908 223.589C223.538 222.955 223.652 222.571 223.686 222.267C223.721 221.963 223.435 221.394 222.805 221.394C222.537 221.394 222.272 221.468 222.033 221.611C221.794 221.754 221.588 221.96 221.433 222.214L219.98 221.222C220.338 220.649 220.815 220.188 221.366 219.881C221.917 219.574 222.526 219.43 223.137 219.463C224.83 219.463 225.906 220.468 225.791 222.029C225.73 222.565 225.568 223.08 225.317 223.536C225.066 223.993 224.732 224.381 224.338 224.674L222.851 226.155H225.7Z" fill="#263238"/>
<path d="M246.772 226.155L246.635 228.046H240.915L241.029 226.552L244.015 223.51C244.644 222.875 244.758 222.492 244.781 222.188C244.804 221.883 244.541 221.315 243.912 221.315C243.642 221.311 243.376 221.384 243.137 221.527C242.898 221.67 242.692 221.879 242.539 222.135L241.075 221.143C241.436 220.57 241.915 220.11 242.468 219.803C243.021 219.496 243.631 219.352 244.244 219.384C245.925 219.384 247.012 220.389 246.898 221.949C246.834 222.485 246.671 222.998 246.42 223.455C246.17 223.911 245.837 224.3 245.445 224.595L243.958 226.076L246.772 226.155Z" fill="#263238"/>
<path d="M253.076 225.335C252.973 226.777 251.932 228.152 249.644 228.152C248.668 228.178 247.706 227.889 246.864 227.319L247.756 225.52C248.334 225.981 249.021 226.226 249.724 226.221C250.433 226.221 250.868 225.904 250.959 225.335C251.051 224.767 250.696 224.515 249.895 224.515H249.026L249.14 223.008L250.57 221.368H247.687L247.825 219.516H253.121L253.007 221.024L251.348 222.902C251.601 222.926 251.847 223.009 252.072 223.146C252.297 223.283 252.496 223.47 252.657 223.697C252.818 223.924 252.938 224.185 253.01 224.467C253.082 224.748 253.104 225.044 253.076 225.335V225.335Z" fill="#263238"/>
<path d="M274.125 226.155L273.976 228.046H268.256L268.371 226.552L271.357 223.51C271.997 222.875 272.112 222.492 272.135 222.188C272.157 221.883 271.883 221.315 271.254 221.315C270.986 221.313 270.722 221.387 270.485 221.53C270.248 221.673 270.045 221.881 269.892 222.135L268.428 221.143C268.788 220.568 269.267 220.107 269.82 219.8C270.373 219.493 270.984 219.35 271.597 219.384C273.279 219.384 274.365 220.389 274.239 221.95C274.178 222.484 274.018 222.998 273.769 223.454C273.52 223.911 273.189 224.3 272.798 224.595L271.299 226.155H274.125Z" fill="#263238"/>
<path d="M281.561 226.367H280.417L280.291 227.98H278.335L278.461 226.367H274.56L274.674 224.806L278.358 219.516H280.497L277.145 224.462H278.633L278.736 223.034H280.692L280.589 224.462H281.676L281.561 226.367Z" fill="#263238"/>
<path d="M301.467 226.155L301.329 228.046H295.609L295.724 226.552L298.687 223.589C299.316 222.955 299.43 222.571 299.453 222.267C299.476 221.963 299.213 221.394 298.584 221.394C298.314 221.391 298.048 221.463 297.809 221.606C297.57 221.749 297.364 221.958 297.211 222.214L295.747 221.222C296.108 220.649 296.587 220.189 297.14 219.882C297.693 219.575 298.303 219.431 298.916 219.463C300.597 219.463 301.684 220.468 301.57 222.029C301.506 222.564 301.343 223.078 301.092 223.534C300.841 223.991 300.509 224.379 300.117 224.674L298.63 226.155H301.467Z" fill="#263238"/>
<path d="M307.896 225.269C307.781 226.777 306.695 228.152 304.464 228.152C303.492 228.18 302.532 227.891 301.695 227.319L302.576 225.52C303.155 225.981 303.841 226.226 304.544 226.221C305.253 226.221 305.688 225.891 305.791 225.322C305.894 224.753 305.551 224.462 304.429 224.462H302.439L303.16 219.542H307.827L307.678 221.394H304.738L304.544 222.637H305.036C307.255 222.611 308.01 223.761 307.896 225.269Z" fill="#263238"/>
<path d="M328.82 226.155L328.671 228.046H322.951L323.066 226.552L326.04 223.51C326.681 222.875 326.784 222.492 326.818 222.188C326.852 221.883 326.566 221.315 325.937 221.315C325.67 221.313 325.406 221.387 325.169 221.53C324.931 221.673 324.728 221.881 324.576 222.135L323.111 221.143C323.472 220.568 323.95 220.107 324.503 219.8C325.057 219.493 325.667 219.35 326.28 219.384C327.962 219.384 329.049 220.389 328.923 221.95C328.862 222.484 328.701 222.998 328.452 223.454C328.204 223.911 327.872 224.3 327.481 224.595L326.04 226.155H328.82Z" fill="#263238"/>
<path d="M335.741 225.269C335.644 226.116 335.269 226.887 334.694 227.423C334.12 227.96 333.389 228.221 332.652 228.152C330.605 228.152 329.369 226.724 329.575 223.986C329.584 223.358 329.701 222.737 329.921 222.162C330.14 221.587 330.457 221.068 330.852 220.637C331.248 220.205 331.714 219.87 332.224 219.65C332.733 219.43 333.276 219.331 333.819 219.357C334.557 219.324 335.287 219.536 335.924 219.966L335.043 221.685C334.657 221.379 334.196 221.226 333.728 221.249C333.239 221.218 332.759 221.406 332.387 221.772C332.014 222.139 331.778 222.657 331.726 223.219C332.214 222.789 332.817 222.57 333.43 222.598C333.741 222.563 334.055 222.608 334.349 222.73C334.643 222.852 334.91 223.047 335.131 223.303C335.352 223.558 335.521 223.867 335.627 224.207C335.732 224.547 335.771 224.91 335.741 225.269V225.269ZM333.728 225.375C333.745 225.23 333.732 225.082 333.692 224.943C333.651 224.804 333.584 224.678 333.494 224.574C333.404 224.47 333.295 224.392 333.175 224.345C333.055 224.298 332.927 224.284 332.801 224.304C332.664 224.283 332.524 224.296 332.391 224.34C332.258 224.384 332.134 224.46 332.027 224.561C331.92 224.663 331.832 224.788 331.768 224.931C331.705 225.073 331.667 225.228 331.657 225.388C331.657 226.01 331.966 226.446 332.595 226.446C332.731 226.466 332.869 226.454 333.001 226.411C333.132 226.367 333.255 226.293 333.361 226.193C333.467 226.092 333.554 225.968 333.617 225.827C333.68 225.687 333.718 225.533 333.728 225.375V225.375Z" fill="#263238"/>
<path d="M161.304 246.919L161.167 248.824H155.447L155.584 247.316L158.547 244.367C159.176 243.732 159.291 243.348 159.313 243.044C159.336 242.74 159.062 242.184 158.444 242.184C158.174 242.179 157.908 242.25 157.668 242.394C157.428 242.537 157.223 242.747 157.071 243.004L155.584 242.026C155.943 241.449 156.421 240.985 156.974 240.675C157.528 240.366 158.139 240.221 158.753 240.254C160.435 240.254 161.521 241.259 161.396 242.832C161.337 243.368 161.177 243.883 160.928 244.339C160.679 244.796 160.347 245.185 159.954 245.478L158.455 246.946L161.304 246.919Z" fill="#263238"/>
<path d="M168.339 240.359L168.225 241.854L165.113 248.824H162.825L165.788 242.211H163.866L163.763 243.533H162.001L162.242 240.333L168.339 240.359Z" fill="#263238"/>
<path d="M189.114 246.919L188.966 248.824H183.246L183.36 247.316L186.323 244.367C186.952 243.732 187.067 243.348 187.101 243.044C187.135 242.74 186.849 242.184 186.22 242.184C185.951 242.181 185.685 242.254 185.445 242.397C185.206 242.54 185.001 242.748 184.847 243.004L183.394 242.013C183.75 241.435 184.226 240.97 184.777 240.66C185.329 240.351 185.939 240.206 186.552 240.24C188.245 240.24 189.32 241.245 189.206 242.819C189.142 243.355 188.979 243.868 188.728 244.325C188.478 244.781 188.145 245.17 187.753 245.464L186.266 246.932L189.114 246.919Z" fill="#263238"/>
<path d="M196.082 246.337C195.956 247.951 194.595 248.982 192.65 248.982C190.705 248.982 189.55 247.938 189.664 246.337C189.693 245.923 189.814 245.525 190.014 245.18C190.214 244.835 190.488 244.555 190.808 244.367C190.577 244.176 190.394 243.917 190.279 243.617C190.164 243.317 190.122 242.986 190.156 242.661C190.259 241.153 191.529 240.187 193.256 240.187C194.984 240.187 196.093 241.153 195.99 242.661C195.96 243.007 195.862 243.34 195.703 243.636C195.545 243.931 195.33 244.181 195.075 244.367C195.398 244.535 195.669 244.814 195.849 245.167C196.029 245.52 196.111 245.929 196.082 246.337V246.337ZM194.011 246.258C194.011 245.61 193.645 245.213 192.993 245.213C192.722 245.179 192.45 245.27 192.236 245.465C192.023 245.661 191.883 245.945 191.849 246.258C191.849 246.906 192.204 247.316 192.867 247.316C193.139 247.343 193.409 247.248 193.622 247.051C193.835 246.854 193.974 246.57 194.011 246.258ZM192.307 242.766C192.307 243.322 192.581 243.652 193.107 243.652C193.22 243.667 193.334 243.656 193.443 243.619C193.552 243.582 193.654 243.521 193.742 243.439C193.831 243.356 193.904 243.254 193.958 243.139C194.012 243.024 194.046 242.897 194.057 242.766C194.057 242.198 193.748 241.867 193.245 241.867C193.132 241.854 193.018 241.868 192.91 241.906C192.801 241.944 192.701 242.007 192.614 242.091C192.526 242.174 192.454 242.277 192.402 242.393C192.349 242.509 192.317 242.636 192.307 242.766V242.766Z" fill="#263238"/>
<path d="M217.852 246.919L217.715 248.824H211.995L212.098 247.316L215.072 244.367C215.701 243.732 215.816 243.348 215.838 243.044C215.861 242.74 215.587 242.184 214.969 242.184C214.699 242.179 214.433 242.25 214.193 242.394C213.953 242.537 213.748 242.747 213.596 243.004L212.132 242.013C212.491 241.436 212.969 240.972 213.522 240.662C214.075 240.353 214.687 240.208 215.301 240.24C216.982 240.24 218.069 241.245 217.943 242.819C217.885 243.355 217.725 243.869 217.476 244.326C217.227 244.783 216.895 245.172 216.502 245.464L215.072 246.919H217.852Z" fill="#263238"/>
<path d="M224.738 244.367C224.73 244.996 224.612 245.618 224.392 246.194C224.172 246.77 223.854 247.29 223.457 247.721C223.06 248.153 222.592 248.488 222.082 248.707C221.571 248.926 221.027 249.024 220.483 248.996C219.748 249.023 219.022 248.807 218.389 248.374L219.27 246.655C219.654 246.967 220.117 247.121 220.586 247.091C221.07 247.118 221.546 246.931 221.916 246.567C222.285 246.204 222.522 245.691 222.576 245.134C222.089 245.556 221.492 245.775 220.883 245.755C220.576 245.785 220.267 245.738 219.978 245.615C219.688 245.493 219.425 245.299 219.207 245.047C218.989 244.796 218.822 244.492 218.716 244.157C218.61 243.822 218.569 243.465 218.595 243.11C218.69 242.264 219.062 241.491 219.634 240.953C220.207 240.414 220.936 240.149 221.672 240.214C223.709 240.187 224.944 241.616 224.738 244.367ZM222.599 242.965C222.614 242.819 222.6 242.671 222.558 242.532C222.516 242.393 222.447 242.267 222.357 242.164C222.266 242.061 222.156 241.982 222.036 241.936C221.915 241.889 221.787 241.874 221.661 241.893C221.396 241.872 221.134 241.972 220.932 242.173C220.731 242.373 220.606 242.658 220.586 242.965C220.567 243.109 220.577 243.257 220.616 243.396C220.655 243.535 220.722 243.662 220.811 243.766C220.9 243.87 221.008 243.948 221.128 243.995C221.248 244.042 221.376 244.056 221.501 244.036C221.769 244.058 222.033 243.959 222.238 243.758C222.443 243.558 222.573 243.274 222.599 242.965V242.965Z" fill="#263238"/>
<path d="M245.239 246.179C245.125 247.607 244.038 248.996 241.807 248.996C240.832 249.018 239.87 248.729 239.027 248.162L239.92 246.35C240.501 246.814 241.192 247.059 241.899 247.051C242.597 247.051 243.043 246.747 243.123 246.179C243.203 245.61 242.86 245.359 242.07 245.359H241.201L241.315 243.838L242.745 242.211H239.862L240 240.359H245.285L245.171 241.854L243.512 243.745C243.765 243.77 244.011 243.853 244.236 243.989C244.46 244.126 244.659 244.313 244.82 244.54C244.981 244.767 245.101 245.029 245.173 245.31C245.245 245.592 245.268 245.887 245.239 246.179V246.179Z" fill="#263238"/>
<path d="M246.028 244.591C246.246 241.801 247.721 240.187 249.598 240.187C251.474 240.187 252.686 241.801 252.48 244.591C252.274 247.382 250.787 248.996 248.923 248.996C247.058 248.996 245.822 247.382 246.028 244.591ZM250.398 244.591C250.536 242.819 250.101 242.145 249.449 242.145C248.797 242.145 248.248 242.819 248.11 244.591C247.973 246.364 248.408 247.038 249.071 247.038C249.735 247.038 250.261 246.364 250.398 244.591Z" fill="#263238"/>
<path d="M169.541 105.116L165.674 109.665L168.809 114.691L169.541 105.116Z" fill="#263238"/>
<path d="M339.322 105.116L342.491 109.665L338.59 114.691L339.322 105.116Z" fill="#263238"/>
<path d="M288.563 114.691H219.156L219.877 105.116H289.283L288.563 114.691Z" fill="#263238"/>
<path d="M424.355 287.019H345.591L360.303 92.6707H439.067L424.355 287.019Z" fill="#5E1457"/>
<path d="M424.355 287.019H345.591L360.303 92.6707H439.067L424.355 287.019Z" fill="black"/>
<path d="M374.088 170.608H366.423C365.981 170.618 365.543 170.52 365.136 170.32C364.73 170.12 364.364 169.823 364.064 169.448C363.764 169.074 363.535 168.63 363.394 168.146C363.252 167.662 363.201 167.149 363.243 166.641L365.691 134.371C365.794 133.291 366.234 132.292 366.93 131.562C367.625 130.831 368.527 130.419 369.466 130.403H377.142C377.584 130.395 378.021 130.495 378.427 130.696C378.833 130.896 379.197 131.193 379.497 131.567C379.797 131.942 380.026 132.385 380.168 132.867C380.31 133.35 380.363 133.863 380.323 134.371L377.886 166.641C377.78 167.724 377.336 168.724 376.636 169.455C375.937 170.186 375.03 170.596 374.088 170.608V170.608Z" fill="white"/>
<path d="M374.088 153.587C373.973 155.029 372.944 156.404 370.656 156.404C369.68 156.428 368.718 156.14 367.876 155.571L368.768 153.772C369.35 154.236 370.041 154.481 370.747 154.473C371.445 154.473 371.891 154.156 371.971 153.587C372.052 153.018 371.708 152.767 370.919 152.767H370.05L370.164 151.259L371.594 149.62H368.7L368.848 147.768H374.134L374.019 149.276L372.36 151.154C372.613 151.178 372.86 151.261 373.084 151.398C373.309 151.534 373.508 151.722 373.669 151.949C373.83 152.175 373.95 152.437 374.022 152.719C374.094 153 374.116 153.296 374.088 153.587V153.587Z" fill="#263238"/>
<path d="M421.621 170.608H384.132C383.69 170.618 383.252 170.52 382.845 170.32C382.439 170.12 382.073 169.823 381.773 169.448C381.473 169.074 381.244 168.63 381.103 168.146C380.961 167.662 380.91 167.149 380.952 166.641L383.388 134.371C383.496 133.291 383.94 132.293 384.636 131.564C385.333 130.834 386.235 130.421 387.175 130.403H424.675C425.116 130.395 425.553 130.495 425.959 130.695C426.364 130.896 426.728 131.194 427.027 131.568C427.326 131.942 427.553 132.386 427.694 132.868C427.835 133.351 427.886 133.863 427.844 134.371L425.408 166.641C425.3 167.72 424.856 168.718 424.159 169.447C423.463 170.177 422.561 170.59 421.621 170.608V170.608Z" fill="#5E1457"/>
<path d="M417.903 219.662H380.414C379.973 219.669 379.535 219.569 379.129 219.369C378.724 219.168 378.359 218.871 378.059 218.497C377.759 218.123 377.531 217.68 377.389 217.197C377.246 216.714 377.194 216.202 377.234 215.694L379.682 183.424C379.79 182.344 380.233 181.347 380.93 180.617C381.627 179.887 382.529 179.475 383.469 179.456H420.992C421.433 179.448 421.871 179.548 422.276 179.749C422.682 179.949 423.047 180.246 423.347 180.621C423.647 180.995 423.875 181.438 424.017 181.921C424.16 182.404 424.212 182.916 424.172 183.424L421.724 215.694C421.615 216.78 421.167 217.783 420.463 218.514C419.759 219.244 418.849 219.653 417.903 219.662V219.662Z" fill="#263238"/>
<path d="M414.197 268.728H376.696C376.255 268.736 375.818 268.636 375.413 268.435C375.008 268.235 374.644 267.937 374.345 267.563C374.046 267.188 373.818 266.745 373.677 266.262C373.537 265.779 373.485 265.268 373.527 264.76L375.964 232.49C376.072 231.411 376.516 230.413 377.212 229.683C377.909 228.953 378.811 228.541 379.751 228.523H417.24C417.681 228.513 418.12 228.611 418.526 228.811C418.933 229.011 419.298 229.308 419.599 229.683C419.899 230.057 420.127 230.501 420.269 230.985C420.41 231.469 420.462 231.982 420.42 232.49L417.972 264.76C417.869 265.84 417.428 266.839 416.733 267.569C416.038 268.3 415.136 268.712 414.197 268.728V268.728Z" fill="#5E1457"/>
<path d="M370.392 219.661H362.716C362.275 219.669 361.838 219.57 361.433 219.369C361.028 219.168 360.664 218.871 360.365 218.496C360.066 218.122 359.838 217.679 359.698 217.196C359.557 216.713 359.505 216.201 359.547 215.694L361.984 183.424C362.092 182.344 362.536 181.347 363.232 180.617C363.929 179.887 364.831 179.475 365.771 179.456H373.447C373.888 179.448 374.325 179.548 374.73 179.749C375.135 179.949 375.499 180.247 375.798 180.621C376.098 180.996 376.325 181.439 376.466 181.922C376.607 182.405 376.658 182.916 376.616 183.424L374.179 215.694C374.071 216.773 373.628 217.771 372.931 218.501C372.235 219.231 371.332 219.643 370.392 219.661Z" fill="white"/>
<path d="M366.492 194.163L365.851 202.627H363.792L364.295 196.014H362.934L363.071 194.163H366.492Z" fill="#263238"/>
<path d="M372.784 199.982C372.681 201.424 371.64 202.799 369.352 202.799C368.376 202.825 367.414 202.536 366.572 201.966L367.453 200.167C368.038 200.622 368.727 200.866 369.432 200.868C370.13 200.868 370.576 200.551 370.656 199.982C370.736 199.413 370.404 199.162 369.603 199.162H368.734L368.848 197.654L370.278 196.014H367.395L367.533 194.163H372.829L372.715 195.671L371.056 197.549C371.31 197.571 371.557 197.653 371.782 197.789C372.008 197.925 372.207 198.113 372.368 198.34C372.53 198.567 372.65 198.83 372.721 199.112C372.792 199.394 372.814 199.69 372.784 199.982Z" fill="#263238"/>
<path d="M366.675 268.728H359.01C358.568 268.738 358.13 268.639 357.723 268.439C357.317 268.24 356.951 267.943 356.651 267.568C356.35 267.193 356.122 266.749 355.981 266.266C355.839 265.782 355.788 265.269 355.83 264.76L358.266 232.49C358.374 231.411 358.818 230.413 359.514 229.683C360.211 228.954 361.113 228.541 362.053 228.523H369.729C370.17 228.515 370.608 228.615 371.014 228.815C371.42 229.016 371.784 229.313 372.084 229.687C372.384 230.061 372.613 230.504 372.755 230.987C372.897 231.47 372.95 231.982 372.91 232.49L370.461 264.76C370.353 265.84 369.91 266.837 369.213 267.567C368.517 268.297 367.615 268.71 366.675 268.728V268.728Z" fill="white"/>
<path d="M422.651 115.366H375.312L376.09 105.116H423.417L422.651 115.366Z" fill="white"/>
<path d="M258.544 79.0617C258.666 77.5723 259.277 76.1936 260.252 75.2095C261.226 74.2254 262.49 73.7108 263.783 73.7716C264.481 73.7224 265.178 73.8715 265.814 74.2057C266.45 74.54 267.006 75.0494 267.433 75.6893L265.717 77.3557C265.497 76.9837 265.202 76.6803 264.857 76.4726C264.511 76.2649 264.127 76.1594 263.738 76.1654C263.05 76.1474 262.385 76.4424 261.884 76.9867C261.383 77.531 261.087 78.281 261.061 79.075C261.003 79.4434 261.018 79.8221 261.106 80.1826C261.193 80.5431 261.35 80.876 261.565 81.1562C261.78 81.4363 262.047 81.6564 262.346 81.8C262.645 81.9435 262.968 82.0066 263.291 81.9846C263.707 81.978 264.117 81.867 264.493 81.6592C264.868 81.4514 265.2 81.1518 265.465 80.7811L266.918 82.4475C266.42 83.0754 265.81 83.5718 265.131 83.9028C264.452 84.2337 263.719 84.3914 262.983 84.3652C262.373 84.4275 261.759 84.3316 261.186 84.0846C260.613 83.8375 260.095 83.4455 259.669 82.9372C259.244 82.4289 258.922 81.8172 258.727 81.1467C258.533 80.4762 258.47 79.7638 258.544 79.0617V79.0617Z" fill="white"/>
<path d="M273.782 82.1697H270.064L269.217 84.1536H266.678L271.334 73.97H273.793L276.917 84.1536H274.331L273.782 82.1697ZM273.221 80.0404L272.329 76.787L270.956 80.0404H273.221Z" fill="white"/>
<path d="M278.392 73.97H280.886L280.291 81.9052H284.49L284.318 84.1932H277.626L278.392 73.97Z" fill="white"/>
<path d="M292.544 81.9185L292.372 84.1536H285.302L286.069 73.97H292.933L292.761 76.1918H288.322L288.197 77.9112H292.109L291.949 80.0537H288.036L287.888 81.9185H292.544Z" fill="white"/>
<path d="M302.908 73.97L302.142 84.1536H300.083L296.651 78.7179L296.239 84.1536H293.802L294.569 73.97H296.628L300.06 79.3924L300.472 73.97H302.908Z" fill="white"/>
<path d="M304.67 73.97H308.88C311.797 73.97 313.65 75.9273 313.456 79.0618C313.261 82.1962 311.065 84.1536 308.148 84.1536H303.983L304.67 73.97ZM308.102 81.9052C308.44 81.9339 308.78 81.884 309.101 81.7584C309.422 81.6328 309.719 81.4341 309.972 81.174C310.226 80.9139 310.432 80.5977 310.579 80.244C310.725 79.8903 310.809 79.5063 310.825 79.1147C310.878 78.7465 310.856 78.3691 310.762 78.0121C310.668 77.6551 310.504 77.328 310.282 77.0565C310.061 76.7851 309.788 76.5765 309.485 76.4471C309.182 76.3178 308.858 76.2711 308.537 76.3109H306.969L306.546 81.9052H308.102Z" fill="white"/>
<path d="M320.217 82.1697H316.499L315.652 84.1536H313.113L317.769 73.97H320.228L323.352 84.1536H320.766L320.217 82.1697ZM319.656 80.0404L318.764 76.787L317.391 80.0404H319.656Z" fill="white"/>
<path d="M328.111 81.4423H326.761L326.555 84.0874H324.061L324.828 73.9038H328.854C331.257 73.9038 332.664 75.3322 332.481 77.6731C332.442 78.3668 332.238 79.0345 331.89 79.6019C331.543 80.1693 331.066 80.6141 330.513 80.8869L332.172 84.0874H329.472L328.111 81.4423ZM328.534 76.2315H327.184L326.955 79.2204H328.328C329.369 79.2204 329.918 78.665 329.987 77.7392C330.056 76.8134 329.564 76.2315 328.534 76.2315Z" fill="white"/>
<path d="M168.168 82.3813H167.024C166.79 82.3865 166.559 82.3343 166.344 82.2281C166.129 82.1219 165.937 81.9642 165.779 81.7653C165.621 81.5664 165.501 81.3311 165.428 81.0747C165.355 80.8184 165.329 80.547 165.354 80.2785L165.457 78.9559C165.507 78.3862 165.736 77.8576 166.101 77.4701C166.466 77.0826 166.941 76.8631 167.436 76.8531H168.58C168.813 76.8479 169.045 76.9001 169.26 77.0063C169.474 77.1125 169.667 77.2702 169.825 77.4691C169.983 77.6679 170.103 77.9033 170.176 78.1597C170.249 78.416 170.274 78.6874 170.25 78.9559L170.147 80.2785C170.097 80.8482 169.868 81.3768 169.503 81.7643C169.138 82.1518 168.663 82.3713 168.168 82.3813V82.3813Z" fill="white"/>
<path d="M175.375 82.3813H174.231C173.998 82.3868 173.767 82.3346 173.552 82.2283C173.338 82.122 173.146 81.964 172.989 81.7649C172.832 81.5658 172.714 81.3301 172.642 81.0738C172.57 80.8174 172.546 80.5463 172.572 80.2785L172.675 78.956C172.726 78.3863 172.955 77.8576 173.319 77.4701C173.684 77.0826 174.159 76.8631 174.654 76.8531H175.798C176.031 76.8476 176.263 76.8998 176.477 77.0061C176.691 77.1125 176.883 77.2705 177.04 77.4696C177.197 77.6687 177.316 77.9043 177.388 78.1607C177.46 78.417 177.483 78.6882 177.457 78.956L177.366 80.2785C177.313 80.8493 177.081 81.3781 176.715 81.7654C176.348 82.1527 175.872 82.3717 175.375 82.3813Z" fill="white"/>
<path d="M182.548 82.3813H181.404C181.171 82.3868 180.94 82.3346 180.725 82.2283C180.511 82.122 180.319 81.964 180.162 81.7649C180.005 81.5658 179.887 81.3301 179.815 81.0738C179.743 80.8174 179.719 80.5463 179.745 80.2785L179.848 78.956C179.896 78.3874 180.123 77.8589 180.485 77.4712C180.848 77.0834 181.322 76.8634 181.816 76.8531H182.96C183.193 76.8476 183.424 76.8998 183.638 77.0061C183.853 77.1125 184.045 77.2705 184.202 77.4696C184.359 77.6687 184.477 77.9043 184.549 78.1607C184.621 78.417 184.645 78.6882 184.619 78.956L184.516 80.2785C184.468 80.8471 184.241 81.3755 183.878 81.7633C183.516 82.1511 183.042 82.371 182.548 82.3813Z" fill="white"/>
<path d="M363.7 252.275L363.552 254.167H357.832L357.946 252.672L360.909 249.71C361.538 249.075 361.652 248.691 361.687 248.387C361.687 247.832 361.435 247.514 360.806 247.514C360.537 247.513 360.272 247.587 360.033 247.73C359.794 247.872 359.588 248.08 359.433 248.334L357.98 247.342C358.336 246.765 358.812 246.3 359.363 245.99C359.915 245.681 360.525 245.536 361.138 245.57C362.819 245.57 363.906 246.575 363.792 248.149C363.728 248.685 363.565 249.198 363.314 249.654C363.064 250.111 362.731 250.5 362.339 250.794L360.852 252.275H363.7Z" fill="#263238"/>
<path d="M370.004 251.522C369.89 252.963 368.803 254.339 366.572 254.339C365.597 254.363 364.634 254.074 363.792 253.505L364.684 251.707C365.268 252.165 365.958 252.409 366.663 252.408C367.361 252.408 367.807 252.09 367.887 251.522C367.968 250.953 367.624 250.702 366.835 250.702H365.966L366.08 249.181L367.51 247.554H364.616L364.764 245.702H370.05L369.935 247.21L368.276 249.088C368.529 249.113 368.776 249.196 369 249.332C369.225 249.469 369.424 249.656 369.585 249.883C369.746 250.11 369.866 250.372 369.938 250.653C370.01 250.935 370.032 251.23 370.004 251.522V251.522Z" fill="#263238"/>
<path d="M419.814 146.763H388.903L389.006 145.44H419.917L419.814 146.763Z" fill="white"/>
<path d="M403.901 152.728H388.457L388.548 151.405H404.003L403.901 152.728Z" fill="white"/>
<path d="M412.389 244.83H381.479L381.581 243.507H412.492L412.389 244.83Z" fill="white"/>
<path d="M396.488 250.807H381.032L381.124 249.485H396.579L396.488 250.807Z" fill="white"/>
<path d="M416.13 195.472H385.219L385.311 194.15H416.222L416.13 195.472Z" fill="white"/>
<path d="M400.217 201.437H384.762L384.865 200.114H400.32L400.217 201.437Z" fill="white"/>
<path d="M420.111 137.174C420.786 135.296 420.351 133.934 421.953 133.934C423.554 133.934 422.742 135.257 423.314 137.174C423.612 138.113 422.536 137.941 421.655 137.941C420.774 137.941 419.756 138.14 420.111 137.174Z" fill="white"/>
<path d="M421.907 134.543C421.84 134.543 421.773 134.527 421.712 134.496C421.65 134.465 421.595 134.419 421.55 134.362C421.505 134.304 421.47 134.237 421.449 134.163C421.428 134.089 421.42 134.011 421.427 133.934C421.443 133.77 421.51 133.619 421.615 133.507C421.72 133.395 421.856 133.331 421.999 133.326C422.066 133.323 422.134 133.338 422.196 133.368C422.258 133.399 422.314 133.444 422.36 133.502C422.405 133.56 422.44 133.628 422.46 133.703C422.481 133.778 422.487 133.856 422.479 133.934C422.467 134.1 422.402 134.255 422.296 134.368C422.19 134.481 422.051 134.543 421.907 134.543V134.543ZM421.976 133.643C421.907 133.646 421.842 133.677 421.792 133.73C421.741 133.783 421.709 133.856 421.701 133.934C421.698 133.971 421.701 134.008 421.711 134.044C421.722 134.079 421.738 134.111 421.759 134.139C421.781 134.166 421.807 134.188 421.837 134.203C421.866 134.218 421.898 134.225 421.93 134.225C421.998 134.223 422.063 134.192 422.114 134.138C422.164 134.085 422.196 134.013 422.204 133.934C422.208 133.897 422.204 133.86 422.194 133.825C422.184 133.79 422.168 133.757 422.146 133.73C422.124 133.702 422.098 133.68 422.069 133.666C422.039 133.651 422.008 133.643 421.976 133.643V133.643Z" fill="white"/>
<path d="M416.416 186.479C417.091 184.601 416.656 183.252 418.258 183.252C419.859 183.252 419.047 184.574 419.619 186.479C419.916 187.418 418.841 187.259 417.96 187.259C417.079 187.259 416.027 187.418 416.416 186.479Z" fill="white"/>
<path d="M418.178 183.834C418.111 183.834 418.044 183.818 417.983 183.787C417.921 183.756 417.866 183.71 417.821 183.653C417.776 183.596 417.741 183.528 417.72 183.454C417.699 183.381 417.691 183.303 417.697 183.225C417.712 183.06 417.778 182.907 417.883 182.795C417.989 182.683 418.126 182.619 418.269 182.617C418.337 182.615 418.405 182.629 418.467 182.659C418.529 182.69 418.585 182.736 418.631 182.793C418.676 182.851 418.711 182.92 418.731 182.994C418.752 183.069 418.758 183.148 418.75 183.225C418.736 183.39 418.67 183.544 418.564 183.656C418.459 183.768 418.321 183.831 418.178 183.834V183.834ZM418.247 182.934C418.178 182.937 418.113 182.968 418.063 183.021C418.012 183.075 417.98 183.147 417.972 183.225C417.969 183.262 417.972 183.3 417.982 183.335C417.993 183.37 418.009 183.402 418.03 183.43C418.052 183.457 418.078 183.479 418.108 183.494C418.137 183.509 418.169 183.517 418.201 183.516C418.269 183.514 418.334 183.483 418.385 183.43C418.435 183.376 418.467 183.304 418.475 183.225C418.48 183.187 418.478 183.149 418.469 183.112C418.46 183.075 418.444 183.041 418.422 183.012C418.4 182.983 418.373 182.96 418.343 182.944C418.313 182.929 418.28 182.921 418.247 182.921V182.934Z" fill="white"/>
<path d="M412.652 235.717C413.327 233.839 412.893 232.477 414.494 232.477C416.096 232.477 415.284 233.8 415.856 235.717C416.153 236.643 415.078 236.484 414.197 236.484C413.316 236.484 412.298 236.736 412.652 235.717Z" fill="white"/>
<path d="M414.448 233.085C414.381 233.086 414.314 233.07 414.253 233.039C414.191 233.007 414.136 232.962 414.091 232.904C414.046 232.847 414.011 232.779 413.99 232.706C413.969 232.632 413.961 232.554 413.968 232.477C413.984 232.313 414.051 232.161 414.156 232.05C414.261 231.938 414.397 231.874 414.54 231.869C414.607 231.866 414.675 231.881 414.737 231.911C414.799 231.941 414.855 231.987 414.901 232.045C414.947 232.103 414.981 232.171 415.001 232.246C415.022 232.32 415.028 232.399 415.02 232.477C415.006 232.642 414.94 232.795 414.834 232.907C414.729 233.019 414.591 233.083 414.448 233.085V233.085ZM414.517 232.186C414.448 232.189 414.383 232.219 414.333 232.273C414.282 232.326 414.25 232.399 414.242 232.477C414.239 232.514 414.242 232.551 414.252 232.586C414.263 232.621 414.279 232.654 414.3 232.681C414.322 232.709 414.348 232.731 414.378 232.746C414.407 232.76 414.439 232.768 414.471 232.768C414.54 232.768 414.606 232.738 414.657 232.684C414.708 232.631 414.74 232.556 414.745 232.477C414.749 232.44 414.745 232.403 414.735 232.368C414.725 232.332 414.709 232.3 414.687 232.273C414.666 232.245 414.639 232.223 414.61 232.208C414.58 232.193 414.549 232.186 414.517 232.186V232.186Z" fill="white"/>
<path opacity="0.2" d="M179.425 47.7571L120.108 304.238H140.071L198.736 47.7571H179.425Z" fill="white"/>
<path opacity="0.2" d="M210.221 47.7571L150.905 304.238H190.487L249.151 47.7571H210.221Z" fill="white"/>
<path opacity="0.4" d="M141.586 173.333C142.662 168.066 139.84 162.787 135.283 161.544C130.727 160.301 126.161 163.563 125.085 168.831C124.01 174.099 126.832 179.377 131.389 180.62C135.945 181.863 140.511 178.601 141.586 173.333Z" fill="white"/>
<path opacity="0.4" d="M445.508 171.098C445.508 172.069 445.259 173.018 444.792 173.825C444.325 174.632 443.662 175.261 442.885 175.632C442.109 176.003 441.255 176.099 440.432 175.909C439.608 175.719 438.852 175.25 438.259 174.562C437.665 173.875 437.262 172.999 437.1 172.047C436.937 171.094 437.023 170.107 437.346 169.211C437.669 168.314 438.215 167.549 438.914 167.011C439.614 166.474 440.435 166.188 441.275 166.191C441.832 166.191 442.383 166.318 442.898 166.565C443.412 166.811 443.879 167.173 444.272 167.629C444.665 168.085 444.977 168.626 445.189 169.221C445.401 169.816 445.51 170.454 445.508 171.098V171.098Z" fill="white"/>
<path d="M386.329 84.2461C386.287 84.7141 386.099 85.1484 385.8 85.4674C385.501 85.7864 385.111 85.9682 384.705 85.9786C384.513 85.9819 384.323 85.9379 384.148 85.8498C383.972 85.7617 383.814 85.6314 383.686 85.4675C383.557 85.3037 383.46 85.11 383.401 84.8994C383.342 84.6888 383.322 84.4661 383.343 84.2461C383.385 83.7794 383.574 83.3466 383.873 83.0298C384.172 82.7129 384.562 82.534 384.968 82.5268C385.159 82.5216 385.348 82.5638 385.524 82.6504C385.7 82.737 385.857 82.8661 385.986 83.0289C386.115 83.1918 386.212 83.3847 386.272 83.5946C386.331 83.8045 386.35 84.0267 386.329 84.2461V84.2461Z" fill="white"/>
<path d="M387.976 79.1147L387.255 80.5298C386.429 80.117 385.535 79.9141 384.635 79.9346C383.82 79.9323 383.015 80.1402 382.279 80.543L381.695 79.1279C382.679 78.5999 383.751 78.3264 384.836 78.3264C385.92 78.3264 386.992 78.5999 387.976 79.1279V79.1147Z" fill="white"/>
<path d="M390.001 75.1206L389.269 76.5489C387.9 75.8053 386.399 75.4429 384.887 75.4909C383.423 75.492 381.979 75.8811 380.666 76.6283L380.094 75.2264C381.622 74.3483 383.306 73.8954 385.013 73.9038C386.736 73.8424 388.446 74.2597 390.001 75.1206V75.1206Z" fill="white"/>
<path d="M392.037 71.0604L391.305 72.5284C389.39 71.445 387.269 70.9356 385.139 71.0471C383.018 71.0249 380.922 71.5775 379.019 72.6606L378.458 71.3381C380.573 70.1238 382.903 69.4945 385.265 69.4998C387.599 69.3687 389.925 69.9047 392.037 71.0604V71.0604Z" fill="white"/>
<path d="M412.252 86.2564C411.31 86.2739 410.376 86.0598 409.511 85.6284C408.647 85.197 407.871 84.5581 407.236 83.7541C406.601 82.95 406.122 81.9991 405.829 80.9645C405.535 79.9298 405.436 78.8349 405.537 77.7524C405.743 75.449 406.671 73.3125 408.147 71.746C409.622 70.1794 411.542 69.2911 413.545 69.2485V69.6188C411.631 69.6593 409.796 70.5094 408.388 72.0083C406.98 73.5071 406.095 75.5508 405.903 77.7524C405.805 78.7876 405.899 79.8349 406.179 80.8247C406.458 81.8146 406.917 82.7244 407.524 83.4937C408.131 84.263 408.872 84.8742 409.699 85.2866C410.526 85.6991 411.42 85.9035 412.321 85.8861L412.252 86.2564Z" fill="white"/>
<path d="M412.515 86.587H412.229C411.249 86.6133 410.275 86.3964 409.373 85.951C408.471 85.5055 407.663 84.8419 407.001 84.0048C406.34 83.1677 405.842 82.1765 405.54 81.098C405.238 80.0195 405.139 78.8787 405.25 77.7524C405.468 75.3612 406.432 73.1438 407.964 71.517C409.495 69.8902 411.488 68.966 413.567 68.9178H413.853L413.773 69.9494H413.487C411.652 69.9901 409.892 70.8062 408.541 72.2438C407.19 73.6813 406.341 75.6408 406.154 77.7524C406.06 78.7455 406.15 79.7504 406.417 80.7002C406.685 81.6501 407.125 82.5232 407.707 83.2613C408.289 83.9995 409.001 84.5859 409.794 84.9815C410.588 85.377 411.445 85.5727 412.309 85.5555H412.595L412.515 86.587Z" fill="white"/>
<path d="M412.252 86.2564V85.8861C414.166 85.8456 416 84.9955 417.409 83.4966C418.817 81.9977 419.701 79.9541 419.894 77.7524C419.991 76.7173 419.897 75.67 419.618 74.6801C419.338 73.6903 418.88 72.7805 418.273 72.0112C417.666 71.2419 416.924 70.6307 416.097 70.2182C415.27 69.8057 414.377 69.6014 413.476 69.6188V69.2485C414.418 69.2286 415.352 69.4412 416.217 69.872C417.082 70.3028 417.858 70.9419 418.493 71.7467C419.127 72.5515 419.606 73.5035 419.897 74.5391C420.188 75.5748 420.284 76.6702 420.18 77.7524C419.978 80.0414 419.062 82.167 417.603 83.732C416.144 85.297 414.242 86.1944 412.252 86.2564V86.2564Z" fill="white"/>
<path d="M412.229 86.587H411.943L412.023 85.5554H412.309C414.145 85.5147 415.904 84.6986 417.255 83.2611C418.606 81.8235 419.455 79.864 419.642 77.7524C419.736 76.7593 419.647 75.7545 419.379 74.8046C419.111 73.8547 418.672 72.9817 418.089 72.2435C417.507 71.5053 416.796 70.9189 416.002 70.5234C415.209 70.1278 414.351 69.9321 413.487 69.9494H413.201L413.281 68.9178H413.567C414.547 68.8935 415.519 69.1118 416.42 69.558C417.32 70.0043 418.127 70.6682 418.787 71.5051C419.447 72.342 419.944 73.3325 420.246 74.41C420.547 75.4876 420.646 76.6272 420.534 77.7524C420.322 80.1436 419.36 82.3624 417.83 83.99C416.3 85.6176 414.308 86.5414 412.229 86.587V86.587Z" fill="white"/>
<path d="M416.656 77.7524H416.336C416.542 75.0015 415.615 71.3116 413.43 69.5923L413.625 69.2749C415.901 71.0736 416.874 74.8957 416.656 77.7524Z" fill="white"/>
<path d="M416.919 78.0301H416.027V77.6995C416.221 75.0544 415.329 71.4703 413.224 69.7642L413.007 69.5923L413.556 68.7194L413.773 68.8913C416.13 70.7429 417.205 74.6973 416.919 77.6466V78.0301Z" fill="white"/>
<path d="M412.366 85.9654L412.206 85.648C413.365 84.7137 414.335 83.5006 415.049 82.0921C415.764 80.6835 416.207 79.1129 416.347 77.4879H416.679C416.529 79.1763 416.067 80.8074 415.322 82.2704C414.578 83.7333 413.57 84.9936 412.366 85.9654V85.9654Z" fill="white"/>
<path d="M412.24 86.4283L411.829 85.5554L412.08 85.3835C413.202 84.4735 414.139 83.2926 414.826 81.9223C415.514 80.5521 415.935 79.0255 416.061 77.4482V77.1176H416.954V77.4482C416.798 79.1939 416.317 80.8801 415.545 82.3912C414.773 83.9024 413.728 85.2028 412.481 86.2034L412.24 86.4283Z" fill="white"/>
<path d="M409.46 77.7524H409.14C409.288 76.0634 409.75 74.4312 410.494 72.968C411.238 71.5047 412.248 70.2448 413.453 69.2749L413.602 69.5923C412.445 70.5292 411.477 71.7429 410.762 73.1509C410.048 74.559 409.604 76.1284 409.46 77.7524V77.7524Z" fill="white"/>
<path d="M409.723 78.0302H408.831V77.6995C408.985 75.9546 409.463 74.2688 410.233 72.7577C411.003 71.2465 412.047 69.9456 413.293 68.9443L413.544 68.7723L413.968 69.6452L413.716 69.8172C412.593 70.727 411.655 71.9077 410.966 73.2778C410.276 74.6478 409.852 76.1745 409.723 77.7524V78.0302Z" fill="white"/>
<path d="M412.183 85.9654C409.895 84.1668 408.945 80.3446 409.151 77.4879H409.483C409.277 80.2388 410.204 83.9287 412.389 85.648L412.183 85.9654Z" fill="white"/>
<path d="M412.241 86.4283L412.012 86.2564C409.655 84.4048 408.648 80.4504 408.866 77.5011V77.1705H409.758V77.5011C409.552 80.1462 410.444 83.7303 412.549 85.4364L412.778 85.6083L412.241 86.4283Z" fill="white"/>
<path d="M412.423 86.0712H412.103L413.361 69.4336H413.693L412.423 86.0712Z" fill="white"/>
<path d="M412.686 86.4019H411.794L413.11 69.103H414.002L412.686 86.4019Z" fill="white"/>
<path d="M419.31 73.507H407.126L407.161 73.1367H419.333L419.31 73.507Z" fill="white"/>
<path d="M419.573 73.8377H406.818L406.898 72.8061H419.642L419.573 73.8377Z" fill="white"/>
<path d="M420.065 78.0831H405.685L405.708 77.7128H420.088L420.065 78.0831Z" fill="white"/>
<path d="M420.328 78.4137H405.365L405.445 77.3821H420.408L420.328 78.4137Z" fill="white"/>
<path d="M418.452 82.6458H406.6L406.623 82.2755H418.486L418.452 82.6458Z" fill="white"/>
<path d="M418.716 82.9765H406.28L406.36 81.9449H418.796L418.716 82.9765Z" fill="white"/>
<path d="M283.186 470.535L291.32 462.732L270.796 440.209L262.033 448.859L283.186 470.535Z" fill="#CB7A63"/>
<path d="M297.932 459.717C297.002 459.392 296.004 459.448 295.106 459.875C294.557 460.061 293.962 460.272 293.482 460.497C293.001 460.722 292.715 460.828 292.418 460.973L291.503 461.436C291.453 461.457 291.411 461.495 291.38 461.544C291.349 461.594 291.332 461.653 291.331 461.714C291.318 461.757 291.318 461.803 291.331 461.846C291.372 461.916 291.433 461.967 291.503 461.992C292.66 462.347 293.843 462.577 295.038 462.679C295.62 462.77 296.212 462.721 296.777 462.534H296.857C297.179 462.414 297.49 462.254 297.783 462.058C297.969 461.882 298.116 461.657 298.21 461.401C298.303 461.145 298.341 460.866 298.321 460.59C298.326 460.418 298.293 460.247 298.225 460.095C298.157 459.942 298.056 459.812 297.932 459.717V459.717ZM297.818 460.576C297.843 460.763 297.823 460.955 297.761 461.13C297.698 461.305 297.595 461.457 297.463 461.568C297.19 461.801 296.872 461.951 296.536 462.005C296.076 462.102 295.607 462.128 295.141 462.084C294.415 462.042 293.692 461.94 292.978 461.78L292.441 461.648C293.409 461.113 294.426 460.705 295.472 460.431C296.029 460.275 296.595 460.164 297.166 460.1C297.338 460.095 297.508 460.145 297.657 460.246C297.706 460.281 297.746 460.33 297.774 460.388C297.802 460.445 297.817 460.51 297.818 460.576V460.576Z" fill="#5E1457"/>
<path d="M294.191 454.757C293.929 454.806 293.679 454.917 293.457 455.083C293.234 455.249 293.044 455.467 292.898 455.723C292.807 455.88 292.73 456.049 292.67 456.225C292.223 457.754 292.136 459.393 292.418 460.973C292.418 460.973 292.418 461.039 292.418 461.039C292.424 461.094 292.444 461.145 292.474 461.187C292.504 461.229 292.544 461.26 292.589 461.277C292.615 461.29 292.642 461.297 292.67 461.297C292.697 461.297 292.724 461.29 292.75 461.277C292.79 461.271 292.827 461.248 292.853 461.211C293.072 460.985 293.279 460.742 293.47 460.484C293.832 459.987 294.158 459.456 294.443 458.897C295.152 457.574 295.655 456.067 295.347 455.286C295.232 454.956 294.935 454.612 294.191 454.757ZM294.877 455.538C295.072 456.053 294.683 457.23 294.111 458.394C293.763 459.105 293.348 459.771 292.875 460.378C292.718 459.183 292.772 457.964 293.036 456.794C293.102 456.54 293.203 456.299 293.333 456.08C293.519 455.754 293.799 455.515 294.122 455.405H294.283C294.763 455.273 294.855 455.485 294.877 455.538V455.538Z" fill="#5E1457"/>
<path d="M290.267 462.163L280.04 468.181C279.844 468.288 279.688 468.472 279.6 468.7C279.512 468.928 279.497 469.185 279.559 469.424L282.579 480.494C282.652 480.757 282.769 481 282.924 481.209C283.079 481.419 283.268 481.59 283.482 481.714C283.695 481.837 283.928 481.91 284.166 481.927C284.403 481.945 284.642 481.907 284.867 481.816L285.05 481.737C302.565 474.609 307.93 469.57 309.772 468.419C314.989 465.126 312.06 460.854 310.104 461.383C301.364 463.803 298.435 463.182 294.648 462.058C293.201 461.69 291.699 461.727 290.267 462.163V462.163Z" fill="#263238"/>
<path opacity="0.2" d="M270.796 440.222L281.195 450.869L272.432 459.518L262.033 448.872L270.796 440.222Z" fill="black"/>
<path d="M267.57 459.439L280.635 445.499L277.763 439.654L262.64 454.665L267.57 459.439Z" fill="#5E1457"/>
<path d="M275.704 441.73L273.954 443.476L271.346 446.121L269.778 447.668L265.202 452.191L264.321 453.064C264.321 453.064 245.697 440.937 235.333 430.581C228.228 423.479 227.588 420.847 226.833 421.508C216.823 430.317 187.193 460.762 170.388 476.606C169.85 476.685 169.301 476.738 168.752 476.791C159.783 477.545 152.736 476.42 147.245 474C147.187 465.576 153.411 445.909 153.925 444.005C153.925 444.005 178.705 415.517 218.87 391.42C219.259 391.196 219.671 390.997 220.083 390.799C220.495 390.601 221.124 390.283 221.65 390.072C223.616 389.164 225.693 388.62 227.805 388.458C229.585 388.376 231.361 388.699 233.033 389.41C233.99 389.799 234.919 390.273 235.813 390.825C236.599 391.299 237.363 391.82 238.101 392.386C239.337 393.299 240.538 394.317 241.682 395.322C244.244 397.61 263.647 426.494 274.08 439.826C274.686 440.408 275.201 441.109 275.704 441.73Z" fill="#5E1457"/>
<path d="M275.704 441.73L273.954 443.476L271.346 446.121L269.778 447.668L265.202 452.191L264.321 453.064C264.321 453.064 245.697 440.937 235.333 430.581C228.228 423.479 227.588 420.847 226.833 421.508C216.823 430.317 187.193 460.762 170.388 476.606C169.85 476.685 169.301 476.738 168.752 476.791C159.783 477.545 152.736 476.42 147.245 474C147.187 465.576 153.411 445.909 153.925 444.005C153.925 444.005 178.705 415.517 218.87 391.42C219.259 391.196 219.671 390.997 220.083 390.799C220.495 390.601 221.124 390.283 221.65 390.072C223.616 389.164 225.693 388.62 227.805 388.458C229.585 388.376 231.361 388.699 233.033 389.41C233.99 389.799 234.919 390.273 235.813 390.825C236.599 391.299 237.363 391.82 238.101 392.386C239.337 393.299 240.538 394.317 241.682 395.322C244.244 397.61 263.647 426.494 274.08 439.826C274.686 440.408 275.201 441.109 275.704 441.73Z" fill="black"/>
<path d="M287.876 476.46L296.696 466.515L279.628 441.73L268.966 449.004L287.876 476.46Z" fill="#CB7A63"/>
<path d="M305.7 463.46C304.716 463.063 302.714 464.332 301.124 465.457L300.106 466.237L299.946 466.369L299.259 466.938C299.208 466.971 299.168 467.023 299.145 467.085C299.123 467.147 299.118 467.216 299.133 467.282C299.148 467.347 299.18 467.406 299.225 467.448C299.271 467.491 299.327 467.516 299.385 467.52C300.439 467.566 301.494 467.526 302.542 467.401L303.229 467.308C303.99 467.244 304.723 466.953 305.357 466.462C305.579 466.291 305.789 466.101 305.986 465.893C306.151 465.663 306.264 465.389 306.314 465.095C306.364 464.802 306.35 464.499 306.272 464.213C306.232 464.046 306.16 463.891 306.061 463.761C305.962 463.63 305.838 463.527 305.7 463.46V463.46ZM305.7 464.399C305.759 464.59 305.773 464.796 305.741 464.996C305.709 465.196 305.632 465.382 305.517 465.536C305.045 466.076 304.435 466.428 303.778 466.541C303.004 466.75 302.215 466.874 301.421 466.911C301.055 466.911 300.666 466.911 300.277 466.911L300.655 466.567L300.929 466.343C302.156 465.347 303.506 464.571 304.933 464.041C305.109 463.982 305.296 463.982 305.471 464.041C305.547 464.054 305.617 464.096 305.669 464.161C305.722 464.226 305.753 464.31 305.757 464.399H305.7Z" fill="#5E1457"/>
<path d="M300.803 459.254C300.544 459.372 300.309 459.551 300.113 459.778C299.916 460.006 299.762 460.277 299.659 460.576C298.938 462.613 300.002 465.734 300.185 466.224C300.205 466.277 300.237 466.323 300.277 466.358C300.317 466.393 300.364 466.415 300.414 466.422C300.47 466.442 300.53 466.442 300.586 466.422C300.606 466.419 300.625 466.41 300.641 466.397C300.657 466.383 300.669 466.364 300.677 466.343V466.343C300.862 466.061 301.023 465.76 301.158 465.443C302.004 463.605 302.794 460.537 302.107 459.479C301.924 459.188 301.547 458.923 300.803 459.254ZM300.517 465.483C300.208 464.438 299.659 462.23 300.163 460.854C300.29 460.461 300.539 460.136 300.86 459.942L301.009 459.849C301.501 459.624 301.627 459.849 301.673 459.849C302.165 460.669 301.41 463.79 300.517 465.536V465.483Z" fill="#5E1457"/>
<path opacity="0.2" d="M278.736 440.209L286.766 452.099L275.898 459.095L267.742 447.523L278.736 440.209Z" fill="black"/>
<path d="M285.474 445.526L283.243 446.981L279.411 449.48L275.979 451.702L272.444 454.003L271.128 454.956L270.282 454.241L269.561 453.633C268.714 452.906 267.547 451.887 266.129 450.644C259.025 444.15 246.383 431.401 242.62 419.802C240.183 423.162 237.346 427.447 233.937 432.009C207.419 467.599 179.093 492.688 140.197 481.883C123.301 477.188 123.941 450.142 123.941 450.142C123.941 439.918 130.496 429.404 130.496 429.404L182.239 434.046C189.401 423.995 203.747 408.257 218.424 398.337C218.767 398.086 219.122 397.848 219.477 397.636C219.831 397.425 220.357 397.055 220.792 396.777C225.217 393.881 229.946 391.658 234.863 390.164C235.87 389.886 236.865 389.635 237.838 389.476C238.846 389.298 239.862 389.183 240.881 389.133V389.133C247.836 388.762 253.877 391.778 257.972 399.779L284.707 444.322L285.474 445.526Z" fill="#5E1457"/>
<path opacity="0.5" d="M285.474 445.526L283.243 446.981L279.411 449.48L275.979 451.702L272.444 454.003L271.128 454.956L270.282 454.241L269.561 453.633C268.714 452.906 267.547 451.887 266.129 450.644C259.025 444.15 246.383 431.401 242.62 419.802C240.183 423.162 237.346 427.447 233.937 432.009C207.419 467.599 179.093 492.688 140.197 481.883C123.301 477.188 123.941 450.142 123.941 450.142C123.941 439.918 130.496 429.404 130.496 429.404L182.239 434.046C189.401 423.995 203.747 408.257 218.424 398.337C218.767 398.086 219.122 397.848 219.477 397.636C219.831 397.425 220.357 397.055 220.792 396.777C225.217 393.881 229.946 391.658 234.863 390.164C235.87 389.886 236.865 389.635 237.838 389.476C238.846 389.298 239.862 389.183 240.881 389.133V389.133C247.836 388.762 253.877 391.778 257.972 399.779L284.707 444.322L285.474 445.526Z" fill="black"/>
<path d="M268.931 457.733L286.023 447.853L284.558 440.831L265.076 451.107L268.931 457.733Z" fill="#5E1457"/>
<path d="M296.01 465.443L284.227 469.57C284.003 469.643 283.81 469.805 283.68 470.028C283.55 470.251 283.492 470.519 283.517 470.786L284.947 483.139C285.034 483.716 285.313 484.23 285.723 484.574C286.133 484.917 286.643 485.062 287.144 484.977H287.35C307.027 481.182 313.525 477.042 315.641 476.169C321.693 473.802 319.267 468.657 317.128 468.803C307.484 469.49 304.487 468.207 300.666 466.158C299.188 465.481 297.589 465.235 296.01 465.443Z" fill="#263238"/>
<path d="M236.877 400.863H200.269C200.028 400.869 199.79 400.815 199.569 400.705C199.347 400.596 199.149 400.433 198.987 400.228C198.824 400.022 198.702 399.779 198.627 399.515C198.552 399.251 198.527 398.971 198.553 398.695L200.589 371.635C200.64 371.048 200.875 370.503 201.25 370.103C201.626 369.703 202.115 369.476 202.626 369.466H239.234C239.474 369.461 239.713 369.515 239.934 369.624C240.155 369.734 240.353 369.897 240.516 370.102C240.678 370.307 240.801 370.55 240.876 370.815C240.95 371.079 240.976 371.359 240.95 371.635L238.902 398.708C238.847 399.289 238.611 399.828 238.239 400.224C237.867 400.621 237.383 400.848 236.877 400.863V400.863Z" fill="#263238"/>
<path opacity="0.9" d="M236.888 398.734H201.779L203.849 371.49H238.947L236.888 398.734Z" fill="white"/>
<path opacity="0.4" d="M202.294 383.961C202.294 384.2 202.232 384.433 202.117 384.631C202.002 384.83 201.839 384.984 201.648 385.074C201.457 385.165 201.247 385.188 201.045 385.141C200.843 385.093 200.657 384.977 200.512 384.808C200.367 384.638 200.269 384.422 200.23 384.188C200.191 383.954 200.213 383.711 200.294 383.492C200.375 383.272 200.51 383.085 200.682 382.954C200.855 382.824 201.058 382.755 201.264 382.758C201.4 382.758 201.535 382.789 201.661 382.85C201.786 382.91 201.9 382.999 201.996 383.111C202.092 383.223 202.167 383.356 202.218 383.502C202.27 383.648 202.295 383.804 202.294 383.961V383.961Z" fill="black"/>
<path opacity="0.4" d="M239.554 383.353C239.554 383.471 239.523 383.586 239.467 383.684C239.41 383.782 239.33 383.858 239.236 383.903C239.142 383.948 239.038 383.96 238.938 383.937C238.838 383.914 238.747 383.857 238.675 383.774C238.603 383.691 238.554 383.585 238.534 383.469C238.514 383.354 238.524 383.234 238.563 383.125C238.602 383.016 238.668 382.924 238.753 382.858C238.837 382.793 238.937 382.758 239.039 382.758C239.175 382.758 239.306 382.821 239.403 382.932C239.499 383.044 239.554 383.195 239.554 383.353Z" fill="black"/>
<path d="M150.482 322.701C151.786 330.98 149.887 342.076 144.842 347.512C150.562 360.076 159.107 372.244 167.127 382.956C178.475 361.901 168.74 348.213 168.74 348.213C160.789 345.899 161.029 342.169 162.482 335.794L150.482 322.701Z" fill="#CB7A63"/>
<path d="M145.219 343.928C146.052 341.801 147.478 340.059 149.269 338.982C151.008 337.805 167.573 340.013 171.634 342.261C174.04 343.547 175.956 345.805 177.022 348.61L145.219 343.928Z" fill="#5E1457"/>
<path d="M191.883 315.824L199.251 319.791C199.851 322.018 200.061 324.36 199.868 326.682C199.445 329.592 198.313 330.557 194.148 328.547C190.442 323.124 191.883 315.824 191.883 315.824Z" fill="#CB7A63"/>
<path d="M196.768 310.441L197.592 312.478L199.056 313.443C199.435 313.713 199.73 314.114 199.901 314.588C200.071 315.063 200.108 315.588 200.006 316.088L199.239 319.739L191.883 315.771L193.279 312.557C194.56 310.296 195.567 309.647 196.642 310.243L196.768 310.441Z" fill="#CB7A63"/>
<path d="M188.955 363.594C193.176 352.895 194.949 347.882 199.548 328.084L193.439 327.29C187.319 346.216 180.295 354.244 180.295 354.244C180.295 354.244 145.837 347.538 141.559 349.879C134.626 353.662 138.333 361.928 142.703 364.017C147.073 366.107 171.749 370.802 183.166 369.175C184.464 368.897 185.678 368.237 186.692 367.26C187.705 366.282 188.485 365.02 188.955 363.594Z" fill="#CB7A63"/>
<path d="M215.495 319.077L215.472 319.104L215.461 319.09L215.495 319.077Z" fill="black"/>
<path d="M189.469 363.779C196.402 389.688 173.328 393.418 179.173 435.091L130.542 429.338C133.23 407.86 139.339 413.467 135.049 371.688C134.683 368.157 134.535 358.132 138.676 349.641C140.272 346.316 142.814 343.732 145.872 342.328C149.693 340.622 165.32 344.669 172.412 346.295C180.306 346.15 188.383 360.513 189.469 363.779Z" fill="#5E1457"/>
<path d="M179.276 313.959C178.819 314.911 178.91 315.89 179.425 316.221C179.94 316.551 180.718 316.088 181.164 315.163C181.61 314.237 181.53 313.232 181.015 312.901C180.5 312.57 179.711 313.046 179.276 313.959Z" fill="#263238"/>
<path d="M180.752 312.808L182.96 313.39C182.96 313.39 181.164 314.488 180.752 312.808Z" fill="#263238"/>
<path d="M179.414 315.903C179.836 318.418 180.56 320.853 181.564 323.137C181.048 323.414 180.486 323.558 179.917 323.558C179.348 323.558 178.786 323.414 178.27 323.137L179.414 315.903Z" fill="#A02724"/>
<path d="M182.754 307.346C182.84 307.309 182.917 307.246 182.977 307.166C183.037 307.085 183.078 306.988 183.097 306.883C183.124 306.722 183.095 306.555 183.015 306.419C182.936 306.282 182.813 306.188 182.674 306.156C181.846 305.954 180.987 305.984 180.171 306.244C179.355 306.504 178.605 306.986 177.983 307.65C177.922 307.701 177.871 307.765 177.833 307.839C177.795 307.913 177.77 307.996 177.761 308.082C177.752 308.168 177.759 308.255 177.78 308.337C177.802 308.42 177.838 308.497 177.887 308.562C177.936 308.628 177.996 308.681 178.063 308.718C178.131 308.755 178.204 308.776 178.279 308.778C178.354 308.781 178.428 308.765 178.497 308.733C178.567 308.7 178.629 308.652 178.681 308.589L178.75 308.51C179.249 307.996 179.845 307.626 180.491 307.428C181.137 307.231 181.814 307.212 182.468 307.373C182.563 307.398 182.663 307.389 182.754 307.346Z" fill="#263238"/>
<path d="M150.001 304.728C148.686 317.543 147.885 322.939 152.404 330.61C159.199 342.142 173.133 341.19 177.72 329.115C181.862 318.204 183.326 299.08 173.385 291.78C171.199 290.154 168.69 289.201 166.096 289.013C163.502 288.825 160.91 289.408 158.566 290.706C156.222 292.004 154.204 293.974 152.705 296.428C151.206 298.882 150.275 301.74 150.001 304.728Z" fill="#CB7A63"/>
<path d="M177.995 328.348C177.172 327.473 176.568 326.359 176.245 325.121C176.234 325.053 176.246 324.983 176.277 324.924C176.309 324.865 176.359 324.823 176.416 324.804C176.474 324.791 176.533 324.802 176.584 324.836C176.634 324.871 176.672 324.925 176.691 324.989C176.981 326.054 177.491 327.021 178.178 327.806L177.995 328.348Z" fill="#263238"/>
<path d="M186.152 300.548C186.175 301.874 185.767 303.161 185.009 304.156C184.25 305.15 183.197 305.779 182.056 305.918C180.569 310.573 176.451 317.675 172.836 314.991C174.94 314.911 178.784 309.396 175.535 305.085C173.156 301.937 169.93 293.671 175.535 291.648C179.871 290.087 186.14 295.47 186.152 300.548Z" fill="#263238"/>
<path d="M176.439 295.324C174.872 287.826 165.525 281.98 158.856 282.218C152.186 282.456 146.055 286.675 141.17 291.925C138.63 294.65 136.262 297.824 135.358 301.699C134.454 305.574 135.358 310.229 138.287 312.412C127.648 324.539 135.564 329.459 137.143 328.626C137.372 331.668 135.575 333.467 133.162 335.464C131.011 337.236 130.473 339.339 129.73 342.261C128.986 345.184 129.73 348.874 132.018 350.197C131.854 349.744 131.774 349.256 131.784 348.766C131.793 348.275 131.892 347.792 132.073 347.348C132.254 346.905 132.514 346.51 132.835 346.189C133.157 345.869 133.533 345.63 133.94 345.489C133.371 347.013 133.215 348.7 133.49 350.329C133.765 351.958 134.46 353.452 135.482 354.617C136.505 355.782 137.808 356.563 139.221 356.857C140.634 357.152 142.09 356.946 143.4 356.267C142.348 355.963 140.872 354.773 140.701 353.53C143.721 355.025 146.924 355.971 150.196 356.333C153.479 356.479 156.98 355.249 159.005 352.26C159.13 350.091 161.67 347.922 163.581 348.001C164.523 348.073 165.41 348.547 166.067 349.331C166.725 350.116 167.106 351.155 167.138 352.247C169.221 351.718 170.079 349.059 170.193 346.613C170.238 345.307 169.895 344.024 169.22 342.976C168.837 342.455 168.367 342.029 167.839 341.722C167.31 341.415 166.733 341.234 166.143 341.19C165.128 340.848 164.27 340.06 163.752 338.995C163.555 338.396 163.499 337.748 163.59 337.116C163.68 336.484 163.914 335.891 164.267 335.397C172.538 321.749 168.637 313.258 169.186 311.592C169.735 309.925 172.389 312.068 172.389 312.068C174.792 308.563 177.32 299.689 176.439 295.324Z" fill="#263238"/>
<path d="M164.164 314.078C163.959 317.05 164.782 319.994 166.452 322.265C168.683 325.267 171.692 323.481 172.641 319.91C173.511 316.697 173.385 311.261 170.353 309.568C167.322 307.875 164.439 310.454 164.164 314.078Z" fill="#CB7A63"/>
<path d="M130.542 425L128.86 429.92C128.654 430.29 129.032 430.727 129.581 430.793L179.665 436.744C180.1 436.744 180.489 436.585 180.546 436.268L179.883 430.753C179.951 430.422 179.585 430.078 179.105 430.026L131.388 424.735C131.24 424.693 131.084 424.695 130.936 424.741C130.787 424.787 130.652 424.876 130.542 425V425Z" fill="#5E1457"/>
<path d="M174.403 436.599H173.076C172.813 436.599 172.607 436.44 172.63 436.255L173.328 429.642C173.328 429.457 173.579 429.298 173.842 429.298H175.169C175.432 429.298 175.638 429.457 175.616 429.655L174.918 436.268C174.895 436.44 174.666 436.599 174.403 436.599Z" fill="#263238"/>
<path d="M156.499 434.245H155.172C154.921 434.245 154.715 434.073 154.738 433.887L155.435 427.275C155.435 427.09 155.687 426.944 155.95 426.944H157.277C157.529 426.944 157.746 427.103 157.712 427.314L157.026 433.861C157.003 434.112 156.728 434.245 156.499 434.245Z" fill="#5E1457"/>
<path d="M156.499 434.245H155.172C154.921 434.245 154.715 434.073 154.738 433.887L155.435 427.275C155.435 427.09 155.687 426.944 155.95 426.944H157.277C157.529 426.944 157.746 427.103 157.712 427.314L157.026 433.861C157.003 434.112 156.728 434.245 156.499 434.245Z" fill="#263238"/>
<path opacity="0.2" d="M168.443 361.915C168.443 361.915 165.137 367.694 170.914 385.099L173.35 392.201C174.151 394.555 181.564 391.103 184.081 387.294C184.081 387.294 171.84 376.158 168.443 361.915Z" fill="black"/>
<path d="M225.712 396.764L234.726 390.508L234.658 400.044C234.658 400.044 227.794 406.564 224.751 401.366C224.751 401.393 223.732 397.742 225.712 396.764Z" fill="#CB7A63"/>
<path d="M241.098 393.563L240.721 397.028C240.666 397.552 240.468 398.041 240.155 398.424C239.842 398.808 239.431 399.065 238.982 399.157L234.623 400.044L234.692 390.508L239.073 390.825C239.351 390.836 239.624 390.909 239.876 391.042C240.129 391.175 240.357 391.364 240.546 391.599C240.735 391.833 240.883 392.109 240.979 392.41C241.076 392.711 241.12 393.031 241.11 393.351C241.111 393.422 241.107 393.493 241.098 393.563V393.563Z" fill="#CB7A63"/>
<path d="M184.241 402.9C187.284 409.196 191.918 414.803 197.843 417.038C204.822 419.683 220.884 409.196 228.182 402.57C228.182 399.316 227.576 398.443 224.865 397.584C224.865 397.584 217.097 402.57 203.3 404.196C198.839 404.725 196.516 399.184 193.553 391.182C192.078 387.215 186.358 363.25 184.401 359.521C181.313 353.53 170.387 355.897 173.122 369.612C174.3 375.418 181.759 397.756 184.241 402.9Z" fill="#CB7A63"/>
<path d="M185.74 355.103C192.33 364.097 194.412 378.618 194.412 378.618L175.673 388.326C175.673 388.326 165.217 365.842 168.283 358.965C170.685 353.675 174.403 350.475 178.796 350.805C180.144 350.943 181.455 351.395 182.648 352.133C183.842 352.872 184.893 353.882 185.74 355.103Z" fill="#5E1457"/>
<path d="M136.765 432.155L135.438 431.996C135.187 431.93 134.992 431.798 135.026 431.599L136.17 425.132C136.17 424.934 136.445 424.815 136.708 424.841L138.035 425C138.287 425 138.481 425.211 138.447 425.397L137.303 431.877C137.26 431.993 137.181 432.086 137.081 432.137C136.981 432.189 136.869 432.195 136.765 432.155V432.155Z" fill="#263238"/>
<path d="M131.446 424.031L131.336 425.348L179.057 430.699L179.167 429.382L131.446 424.031Z" fill="#263238"/>
</svg>
