<svg width="25" height="24" viewBox="0 0 25 24" fill="none" xmlns="http://www.w3.org/2000/svg">
<path d="M11.999 9.49917L12 21.0012L6.75006 21.0018C5.01701 21.0018 3.60076 19.6455 3.50514 17.9364L3.5 17.7519V9.49917H11.999ZM13.499 15.4992H22L22.0008 17.7519C22.0006 19.5467 20.5456 21.0018 18.7507 21.0018L13.5 21.0012L13.499 15.4992ZM18.7514 2.49817C20.4844 2.49817 21.9007 3.85452 21.9963 5.56367L22.0014 5.74809L22 13.9992H13.499L13.5 2.49817H18.7514ZM12 2.49817L11.999 7.99917H3.5L3.5006 5.74811C3.50081 3.95328 4.95582 2.49817 6.75065 2.49817H12Z" fill="white"/>
</svg>
