<svg width="23" height="18" viewBox="0 0 23 18" fill="none" xmlns="http://www.w3.org/2000/svg">
<path d="M17.6271 15.0809C15.795 16.0105 13.6695 16.5028 11.5 16.5001C5.88335 16.5001 1.21043 13.2667 0.230225 9.00006C0.678172 7.05899 1.89859 5.2858 3.70939 3.94506L0.450016 1.34006L1.92397 0.160889L22.5479 16.6609L21.074 17.8392L17.6261 15.0809H17.6271ZM5.18231 5.12505C3.76669 6.15471 2.78055 7.50737 2.35731 9.00006C2.68261 10.1388 3.33571 11.201 4.2646 12.1022C5.1935 13.0034 6.37254 13.7187 7.70788 14.1911C9.04322 14.6636 10.498 14.8801 11.9564 14.8235C13.4147 14.7669 14.8365 14.4387 16.1083 13.8651L13.9958 12.1751C13.0966 12.6282 12.0315 12.8235 10.9753 12.7288C9.91905 12.634 8.93443 12.255 8.1829 11.6537C7.43137 11.0525 6.95754 10.2648 6.83914 9.41986C6.72074 8.57489 6.96479 7.72281 7.53126 7.00339L5.18231 5.12505ZM12.4521 10.9401L9.07502 8.23839C8.88967 8.61584 8.84604 9.02835 8.9495 9.42534C9.05296 9.82233 9.29899 10.1865 9.65743 10.4733C10.0159 10.76 10.4711 10.9569 10.9674 11.0396C11.4636 11.1224 11.9792 11.0875 12.4511 10.9392L12.4521 10.9401ZM20.674 12.8267L19.1833 11.6351C19.8797 10.8411 20.3754 9.94604 20.6427 9.00006C20.3596 8.00816 19.8274 7.07268 19.0783 6.25047C18.3292 5.42826 17.379 4.73649 16.2853 4.21723C15.1916 3.69796 13.9774 3.36203 12.7164 3.22986C11.4554 3.09769 10.174 3.17204 8.95002 3.44839L7.30627 2.13339C8.60522 1.72506 10.0208 1.50006 11.5 1.50006C17.1167 1.50006 21.7896 4.73339 22.7698 9.00006C22.4506 10.3881 21.7332 11.698 20.674 12.8267ZM11.2115 5.25672C11.8745 5.22394 12.5387 5.30428 13.16 5.4924C13.7812 5.68053 14.3454 5.97215 14.8152 6.34793C15.2849 6.72371 15.6494 7.17508 15.8846 7.6721C16.1197 8.16913 16.2202 8.70046 16.1792 9.23089L11.2104 5.25672H11.2115Z" fill="#504F4F"/>
</svg>
