<svg width="31" height="30" viewBox="0 0 31 30" fill="none" xmlns="http://www.w3.org/2000/svg">
<path fill-rule="evenodd" clip-rule="evenodd" d="M18.9228 8.12772C18.4012 8.00306 17.6967 7.90993 17.2537 7.90993C16.054 7.90993 15.9761 8.53325 15.9761 9.53059V11.306H18.975L18.7136 14.9837H15.9761V26.1699H12.2212V14.9837H10.2913V11.306H12.2212V9.03119C12.2212 5.91525 13.4466 4.16992 16.5235 4.16992C17.5924 4.16992 18.3748 4.35692 19.3916 4.60626L18.9228 8.12772Z" fill="white"/>
<path d="M29.0208 15C29.0208 22.7313 22.7488 29 15.0104 29C7.27202 29 1 22.7313 1 15C1 7.26867 7.27202 1 15.0104 1C22.7488 1 29.0208 7.26867 29.0208 15Z" stroke="white" stroke-width="2"/>
</svg>
