<svg width="138" height="138" viewBox="0 0 138 138" fill="none" xmlns="http://www.w3.org/2000/svg">
<path d="M37.92 84V78.6H25.28V74.12L36.4 56.08H42.92V74.52H46.56V78.6H42.92V84H37.92ZM29.6 74.52H37.92V61.2H37.6L29.6 74.52ZM61.5844 84.48C59.7977 84.48 58.251 84.16 56.9444 83.52C55.6377 82.8533 54.5577 81.9067 53.7044 80.68C52.851 79.4533 52.211 77.9467 51.7844 76.16C51.3844 74.3733 51.1844 72.3333 51.1844 70.04C51.1844 67.7733 51.3844 65.7467 51.7844 63.96C52.211 62.1467 52.851 60.6267 53.7044 59.4C54.5577 58.1733 55.6377 57.24 56.9444 56.6C58.251 55.9333 59.7977 55.6 61.5844 55.6C65.131 55.6 67.7444 56.8667 69.4244 59.4C71.131 61.9333 71.9844 65.48 71.9844 70.04C71.9844 74.6 71.131 78.1467 69.4244 80.68C67.7444 83.2133 65.131 84.48 61.5844 84.48ZM61.5844 80.04C63.371 80.04 64.611 79.3733 65.3044 78.04C66.0244 76.68 66.3844 74.8533 66.3844 72.56V67.52C66.3844 65.2267 66.0244 63.4133 65.3044 62.08C64.611 60.72 63.371 60.04 61.5844 60.04C59.7977 60.04 58.5444 60.72 57.8244 62.08C57.131 63.4133 56.7844 65.2267 56.7844 67.52V72.56C56.7844 74.8533 57.131 76.68 57.8244 78.04C58.5444 79.3733 59.7977 80.04 61.5844 80.04ZM82.3688 84L101.729 56.08H106.369L87.0088 84H82.3688ZM84.2888 71.44C82.0221 71.44 80.2888 70.7733 79.0888 69.44C77.9154 68.08 77.3288 66.1067 77.3288 63.52C77.3288 60.9333 77.9154 58.9733 79.0888 57.64C80.2888 56.28 82.0221 55.6 84.2888 55.6C86.5554 55.6 88.2754 56.28 89.4488 57.64C90.6221 58.9733 91.2088 60.9333 91.2088 63.52C91.2088 66.1067 90.6221 68.08 89.4488 69.44C88.2754 70.7733 86.5554 71.44 84.2888 71.44ZM84.2888 68.4C85.9421 68.4 86.7688 67.1333 86.7688 64.6V62.44C86.7688 59.9067 85.9421 58.64 84.2888 58.64C82.6354 58.64 81.8088 59.9067 81.8088 62.44V64.6C81.8088 67.1333 82.6354 68.4 84.2888 68.4ZM104.449 84.48C102.209 84.48 100.489 83.8133 99.2888 82.48C98.1154 81.12 97.5288 79.1467 97.5288 76.56C97.5288 73.9733 98.1154 72.0133 99.2888 70.68C100.489 69.32 102.209 68.64 104.449 68.64C106.715 68.64 108.435 69.32 109.609 70.68C110.809 72.0133 111.409 73.9733 111.409 76.56C111.409 79.1467 110.809 81.12 109.609 82.48C108.435 83.8133 106.715 84.48 104.449 84.48ZM104.449 81.44C106.102 81.44 106.929 80.1733 106.929 77.64V75.48C106.929 72.9467 106.102 71.68 104.449 71.68C102.795 71.68 101.969 72.9467 101.969 75.48V77.64C101.969 80.1733 102.795 81.44 104.449 81.44Z" fill="#3F0D3A"/>
<path d="M138 69C138 107.108 107.108 138 69 138C30.8924 138 0 107.108 0 69C0 30.8924 30.8924 0 69 0C107.108 0 138 30.8924 138 69ZM8.70728 69C8.70728 102.299 35.7012 129.293 69 129.293C102.299 129.293 129.293 102.299 129.293 69C129.293 35.7012 102.299 8.70728 69 8.70728C35.7012 8.70728 8.70728 35.7012 8.70728 69Z" fill="#A39D9D"/>
<path d="M69 0C54.279 -1.75547e-07 39.9438 4.70813 28.0894 13.4363C16.235 22.1646 7.48274 34.4553 3.11176 48.5125C-1.25923 62.5696 -1.01984 77.6562 3.79493 91.5676C8.6097 105.479 17.7475 117.486 29.8728 125.834L34.8104 118.662C24.2151 111.367 16.2305 100.876 12.0233 88.7198C7.81613 76.5639 7.60695 63.3811 11.4264 51.0978C15.2457 38.8146 22.8935 28.0748 33.252 20.4481C43.6105 12.8213 56.1366 8.70728 69 8.70728L69 0Z" fill="#7D1A73"/>
</svg>
