<svg width="26" height="19" viewBox="0 0 26 19" fill="none" xmlns="http://www.w3.org/2000/svg">
<path d="M0.833008 0H25.833V18.75H0.833008V0Z" fill="#012169"/>
<path d="M3.7627 0L13.2939 7.07031L22.7861 0H25.833V2.42188L16.458 9.41406L25.833 16.3672V18.75H22.708L13.333 11.7578L3.99707 18.75H0.833008V16.4062L10.1689 9.45312L0.833008 2.5V0H3.7627Z" fill="white"/>
<path d="M17.3955 10.9766L25.833 17.1875V18.75L15.2471 10.9766H17.3955ZM10.208 11.7578L10.4424 13.125L2.94238 18.75H0.833008L10.208 11.7578ZM25.833 0V0.117188L16.1064 7.46094L16.1846 5.74219L23.8799 0H25.833ZM0.833008 0L10.1689 6.875H7.8252L0.833008 1.64062V0Z" fill="#C8102E"/>
<path d="M10.2471 0V18.75H16.4971V0H10.2471ZM0.833008 6.25V12.5H25.833V6.25H0.833008Z" fill="white"/>
<path d="M0.833008 7.53906V11.2891H25.833V7.53906H0.833008ZM11.4971 0V18.75H15.2471V0H11.4971Z" fill="#C8102E"/>
</svg>
