<svg width="31" height="30" viewBox="0 0 31 30" fill="none" xmlns="http://www.w3.org/2000/svg">
<path fill-rule="evenodd" clip-rule="evenodd" d="M11.6858 7.02016C11.6858 8.15635 10.9527 9.07585 9.8063 9.07585C8.70456 9.07585 7.97148 8.15635 7.99416 7.02016C7.97148 5.82875 8.70454 4.93604 9.82826 4.93604C10.9527 4.93604 11.6638 5.82875 11.6858 7.02016ZM8.08633 23.9342V10.6998H11.5716V23.9333H8.08633V23.9342Z" fill="white"/>
<path fill-rule="evenodd" clip-rule="evenodd" d="M14.3651 14.9236C14.3651 13.2729 14.319 11.8656 14.2729 10.7018H17.3003L17.4612 12.5149H17.53C17.9887 11.6757 19.1351 10.4048 20.9926 10.4048C23.2854 10.4048 25.0054 12.1911 25.0054 16.0866V23.9362H21.5201V16.602C21.5201 14.896 21.016 13.733 19.7547 13.733C18.7912 13.733 18.2184 14.5178 17.9894 15.275C17.8972 15.5461 17.8519 15.9243 17.8519 16.3041V23.9362H14.3665V14.9236H14.3651Z" fill="white"/>
<path d="M29.9029 15C29.9029 22.7313 23.6309 29 15.8925 29C8.1541 29 1.88208 22.7313 1.88208 15C1.88208 7.26867 8.1541 1 15.8925 1C23.6309 1 29.9029 7.26867 29.9029 15Z" stroke="white" stroke-width="2"/>
</svg>
