<svg width="20" height="21" viewBox="0 0 20 21" fill="none" xmlns="http://www.w3.org/2000/svg">
<path d="M3.15789 16.5H5.26316V18.5H17.8947V2.5H5.26316V4.5H3.15789V1.5C3.15789 1.23478 3.2688 0.98043 3.4662 0.792893C3.66361 0.605357 3.93135 0.5 4.21053 0.5H18.9474C19.2265 0.5 19.4943 0.605357 19.6917 0.792893C19.8891 0.98043 20 1.23478 20 1.5V19.5C20 19.7652 19.8891 20.0196 19.6917 20.2071C19.4943 20.3946 19.2265 20.5 18.9474 20.5H4.21053C3.93135 20.5 3.66361 20.3946 3.4662 20.2071C3.2688 20.0196 3.15789 19.7652 3.15789 19.5V16.5ZM5.26316 9.5H12.6316V11.5H5.26316V14.5L0 10.5L5.26316 6.5V9.5Z" fill="white" fill-opacity="0.88"/>
<path d="M3.15789 16.5H5.26316V18.5H17.8947V2.5H5.26316V4.5H3.15789V1.5C3.15789 1.23478 3.2688 0.98043 3.4662 0.792893C3.66361 0.605357 3.93135 0.5 4.21053 0.5H18.9474C19.2265 0.5 19.4943 0.605357 19.6917 0.792893C19.8891 0.98043 20 1.23478 20 1.5V19.5C20 19.7652 19.8891 20.0196 19.6917 20.2071C19.4943 20.3946 19.2265 20.5 18.9474 20.5H4.21053C3.93135 20.5 3.66361 20.3946 3.4662 20.2071C3.2688 20.0196 3.15789 19.7652 3.15789 19.5V16.5ZM5.26316 9.5H12.6316V11.5H5.26316V14.5L0 10.5L5.26316 6.5V9.5Z" fill="white"/>
<path d="M3.15789 16.5H5.26316V18.5H17.8947V2.5H5.26316V4.5H3.15789V1.5C3.15789 1.23478 3.2688 0.98043 3.4662 0.792893C3.66361 0.605357 3.93135 0.5 4.21053 0.5H18.9474C19.2265 0.5 19.4943 0.605357 19.6917 0.792893C19.8891 0.98043 20 1.23478 20 1.5V19.5C20 19.7652 19.8891 20.0196 19.6917 20.2071C19.4943 20.3946 19.2265 20.5 18.9474 20.5H4.21053C3.93135 20.5 3.66361 20.3946 3.4662 20.2071C3.2688 20.0196 3.15789 19.7652 3.15789 19.5V16.5ZM5.26316 9.5H12.6316V11.5H5.26316V14.5L0 10.5L5.26316 6.5V9.5Z" fill="white"/>
<path d="M3.15789 16.5H5.26316V18.5H17.8947V2.5H5.26316V4.5H3.15789V1.5C3.15789 1.23478 3.2688 0.98043 3.4662 0.792893C3.66361 0.605357 3.93135 0.5 4.21053 0.5H18.9474C19.2265 0.5 19.4943 0.605357 19.6917 0.792893C19.8891 0.98043 20 1.23478 20 1.5V19.5C20 19.7652 19.8891 20.0196 19.6917 20.2071C19.4943 20.3946 19.2265 20.5 18.9474 20.5H4.21053C3.93135 20.5 3.66361 20.3946 3.4662 20.2071C3.2688 20.0196 3.15789 19.7652 3.15789 19.5V16.5ZM5.26316 9.5H12.6316V11.5H5.26316V14.5L0 10.5L5.26316 6.5V9.5Z" fill="white"/>
<path d="M3.15789 16.5H5.26316V18.5H17.8947V2.5H5.26316V4.5H3.15789V1.5C3.15789 1.23478 3.2688 0.98043 3.4662 0.792893C3.66361 0.605357 3.93135 0.5 4.21053 0.5H18.9474C19.2265 0.5 19.4943 0.605357 19.6917 0.792893C19.8891 0.98043 20 1.23478 20 1.5V19.5C20 19.7652 19.8891 20.0196 19.6917 20.2071C19.4943 20.3946 19.2265 20.5 18.9474 20.5H4.21053C3.93135 20.5 3.66361 20.3946 3.4662 20.2071C3.2688 20.0196 3.15789 19.7652 3.15789 19.5V16.5ZM5.26316 9.5H12.6316V11.5H5.26316V14.5L0 10.5L5.26316 6.5V9.5Z" fill="white"/>
<path d="M3.15789 16.5H5.26316V18.5H17.8947V2.5H5.26316V4.5H3.15789V1.5C3.15789 1.23478 3.2688 0.98043 3.4662 0.792893C3.66361 0.605357 3.93135 0.5 4.21053 0.5H18.9474C19.2265 0.5 19.4943 0.605357 19.6917 0.792893C19.8891 0.98043 20 1.23478 20 1.5V19.5C20 19.7652 19.8891 20.0196 19.6917 20.2071C19.4943 20.3946 19.2265 20.5 18.9474 20.5H4.21053C3.93135 20.5 3.66361 20.3946 3.4662 20.2071C3.2688 20.0196 3.15789 19.7652 3.15789 19.5V16.5ZM5.26316 9.5H12.6316V11.5H5.26316V14.5L0 10.5L5.26316 6.5V9.5Z" fill="white"/>
</svg>
