<svg width="25" height="25" viewBox="0 0 25 25" fill="none" xmlns="http://www.w3.org/2000/svg">
<path d="M22.0456 9.5649L22.0456 17.7043C22.0456 19.4368 20.689 20.8525 18.9798 20.9481L18.7953 20.9532L5.29431 20.9532C3.56115 20.9532 2.14483 19.5972 2.04921 17.8887L2.04407 17.7043L2.04407 9.5649L11.6968 14.6197C11.9148 14.7338 12.1749 14.7338 12.3929 14.6197L22.0456 9.5649ZM5.29431 4.95837L18.7953 4.95837C20.4802 4.95837 21.8656 6.23988 22.0294 7.88098L12.0448 13.1091L2.06026 7.88098C2.21794 6.30066 3.5085 5.05379 5.10838 4.9636L5.29431 4.95837L18.7953 4.95837L5.29431 4.95837Z" fill="white"/>
</svg>
