<svg width="80" height="100" viewBox="0 0 80 100" fill="none" xmlns="http://www.w3.org/2000/svg">
<path d="M44.1346 81.4458L24.7708 72.5784L0.168457 78.966L20.3681 88.4918L44.1346 81.4458Z" fill="#DBDBDB"/>
<path d="M44.1348 81.4458L24.7656 72.602C24.817 72.602 0.163258 79.0252 0.17568 79.0252V78.9115L20.37 88.461C20.3079 88.4847 44.1489 81.4339 44.1277 81.4458H44.1348ZM44.1348 81.4458L20.3665 88.5226C20.3665 88.5226 0.157935 79.0205 0.152611 79.0228L0 78.9494L0.159709 78.9092C0.159709 78.9092 24.7709 72.5523 24.7727 72.5499C24.7744 72.5476 44.1277 81.4458 44.1348 81.4458Z" fill="#DBDBDB"/>
<path d="M21.1385 86.0192C19.9478 85.3371 18.7198 84.7023 17.4865 84.0747C16.2532 83.4471 15.0022 82.8431 13.7476 82.2439C12.4929 81.6447 11.2188 81.0597 9.9305 80.5102L7.99447 79.6789C7.33257 79.4184 6.69018 79.1365 6.02295 78.8997C6.61387 79.2455 7.22787 79.5629 7.83121 79.8944L9.67319 80.8418C10.903 81.4742 12.1576 82.0757 13.4139 82.6726C14.6703 83.2694 15.9409 83.8568 17.231 84.4063C18.5211 84.9558 19.8094 85.5123 21.1385 86.0192Z" fill="#C7C7C7"/>
<path d="M17.9392 82.4144C16.5252 81.5401 15.0789 80.7622 13.6057 80.0839C12.1009 79.3734 10.5712 78.7126 8.94043 78.175C10.3536 79.0505 11.7994 79.8292 13.2721 80.5079C14.7858 81.2065 16.3083 81.8744 17.9392 82.4144Z" fill="#C7C7C7"/>
<path d="M26.9712 84.5839C25.7805 83.9018 24.5543 83.2671 23.321 82.6394C22.0877 82.0118 20.8366 81.4079 19.5803 80.8087C18.3239 80.2094 17.0533 79.6244 15.7632 79.075L13.8272 78.2365C13.1706 77.976 12.5247 77.6989 11.8574 77.4502C12.4483 77.796 13.0623 78.1134 13.6639 78.445L15.5077 79.3923C16.7374 80.0247 17.992 80.6239 19.2484 81.2208C20.5048 81.8176 21.7754 82.405 23.0655 82.9544C24.3556 83.5039 25.6439 84.07 26.9712 84.5839Z" fill="#C7C7C7"/>
<path d="M27.7183 82.8313C25.6917 81.6471 23.5641 80.5931 21.4115 79.5676C19.259 78.5421 17.0621 77.5781 14.7729 76.7255C16.7995 77.9097 18.9272 78.966 21.0797 79.9892C23.2322 81.0123 25.4327 81.9786 27.7183 82.8313Z" fill="#C7C7C7"/>
<path d="M25.1861 79.5439C24.0245 78.7851 22.8285 78.1238 21.6051 77.5639C20.3232 76.948 19.0162 76.4293 17.6904 76.0102C18.8524 76.7673 20.0484 77.4277 21.2715 77.9878C22.5537 78.6031 23.8606 79.1226 25.1861 79.5439Z" fill="#C7C7C7"/>
<path d="M79.8032 85.5147L52.9347 76.0386L27.0068 90.1544L53.7404 99.9668L79.8032 85.5147Z" fill="#EBEBEB"/>
<path d="M79.8031 85.5147C79.8031 85.5147 52.8832 76.0576 52.9382 76.0576L27.0298 90.2089V90.0976C27.0298 90.0976 53.806 99.9479 53.7439 99.9408L79.8137 85.5147H79.8031ZM79.8031 85.5147C79.8031 85.5147 53.7456 99.9953 53.7421 100C53.7385 100.005 26.9997 90.2066 26.9961 90.2113L26.8701 90.1639L26.9908 90.1C26.9908 90.1 52.9382 76.0102 52.9382 76.0078C52.9382 76.0055 79.7995 85.5171 79.8084 85.5147H79.8031Z" fill="#DBDBDB"/>
<path d="M54.1182 97.0916C52.3685 96.336 50.5939 95.6326 48.8176 94.9363C47.0413 94.24 45.2507 93.5697 43.4602 92.9042C41.6697 92.2387 39.8668 91.5992 38.0532 90.9834L35.3328 90.0621C34.4189 89.7708 33.5103 89.4652 32.5894 89.1905C33.4624 89.5718 34.3497 89.9247 35.2299 90.2918L37.8917 91.3458C39.6662 92.0563 41.4585 92.7123 43.2491 93.3755C45.0396 94.0387 46.8443 94.6829 48.6561 95.2963C50.4679 95.9097 52.2815 96.5302 54.1182 97.0916Z" fill="#DBDBDB"/>
<path d="M47.2312 92.0658C45.3164 91.1468 43.336 90.37 41.3414 89.6287C39.3468 88.8873 37.3221 88.2076 35.2388 87.6652C37.1535 88.5842 39.1428 89.361 41.1285 90.1C43.1142 90.8389 45.1496 91.5187 47.2312 92.0658Z" fill="#DBDBDB"/>
<path d="M56.7679 93.07C55.2382 92.395 53.6855 91.7721 52.1292 91.1563C50.573 90.5405 49.0043 89.9531 47.4338 89.3681C45.8633 88.7831 44.2822 88.2242 42.6886 87.6913L40.3001 86.8908C39.4945 86.6397 38.703 86.3744 37.8867 86.1376C38.6498 86.481 39.427 86.7937 40.1936 87.1205L42.5236 88.0537C44.0781 88.6742 45.6486 89.2568 47.2191 89.8395C48.7895 90.4221 50.3707 90.9834 51.9642 91.5163C53.5577 92.0492 55.1495 92.5892 56.7679 93.07Z" fill="#DBDBDB"/>
<path d="M58.0172 91.0308C56.5976 90.3984 55.169 89.8181 53.7281 89.2474C52.2872 88.6766 50.8374 88.1271 49.3822 87.5895C47.9271 87.0518 46.4649 86.5308 44.9885 86.0381L42.7738 85.2944C42.0268 85.0576 41.2885 84.8208 40.5361 84.6076C41.246 84.9297 41.9558 85.221 42.6656 85.5266L44.8217 86.3934C46.259 86.9713 47.7124 87.5137 49.1675 88.0513C50.6227 88.5889 52.0867 89.1076 53.5631 89.6002C55.0395 90.0929 56.5177 90.5926 58.0172 91.0308Z" fill="#DBDBDB"/>
<path d="M64.7124 90.9905C62.9627 90.235 61.1881 89.5316 59.4118 88.8352C57.6355 88.1389 55.845 87.4687 54.0545 86.8031C52.264 86.1376 50.461 85.4981 48.6474 84.8823L45.927 83.961C45.0131 83.6697 44.1046 83.3642 43.1836 83.0871C44.0567 83.4708 44.9439 83.8236 45.8223 84.1908L48.4842 85.2447C50.2587 85.9552 52.051 86.6113 53.8415 87.2744C55.632 87.9376 57.435 88.5794 59.2486 89.1952C61.0622 89.811 62.8757 90.4292 64.7124 90.9905Z" fill="#DBDBDB"/>
<path d="M64.9342 88.5747C63.3868 87.8926 61.8146 87.2626 60.2406 86.6421C58.6665 86.0215 57.0783 85.4247 55.4901 84.8326C53.9019 84.2405 52.2959 83.6768 50.6899 83.1344L48.273 82.3244C47.4585 82.071 46.6528 81.801 45.833 81.5618C46.6049 81.9076 47.3893 82.2226 48.1683 82.5542L50.5267 83.5015C52.0989 84.1292 53.6872 84.7189 55.2771 85.3086C56.8671 85.8984 58.4713 86.4668 60.0773 87.0068C61.6833 87.5468 63.2981 88.0892 64.9342 88.5747Z" fill="#DBDBDB"/>
<path d="M70.0093 87.94C68.2578 87.1844 66.485 86.481 64.7087 85.7847C62.9324 85.0884 61.1419 84.4181 59.3513 83.7526C57.5608 83.0871 55.7579 82.4476 53.9443 81.8318L51.2239 80.9105C50.3083 80.6192 49.4015 80.3136 48.4805 80.0365C49.3535 80.4202 50.2408 80.7731 51.1192 81.1402L53.781 82.1942C55.5556 82.9047 57.3479 83.5608 59.1384 84.2239C60.9289 84.8871 62.7319 85.5289 64.5454 86.1447C66.359 86.7605 68.1708 87.3787 70.0093 87.94Z" fill="#DBDBDB"/>
<path d="M63.8534 83.1842C61.8162 82.2202 59.7151 81.3984 57.5963 80.6121C55.4775 79.8257 53.3374 79.1034 51.1299 78.5113C53.1653 79.4776 55.2681 80.2994 57.3852 81.0834C59.5022 81.8673 61.6494 82.5897 63.8534 83.1842Z" fill="#DBDBDB"/>
<path d="M55.2078 50.4075H3.38037V59.4668H55.2078V50.4075Z" fill="#C7C7C7"/>
<path d="M13.6641 50.4075H8.82666V59.4668H13.6641V50.4075Z" fill="#DBDBDB"/>
<path d="M21.6601 50.4075H19.8643V59.4668H21.6601V50.4075Z" fill="#DBDBDB"/>
<path d="M49.4316 50.4075H44.5942V59.4668H49.4316V50.4075Z" fill="#DBDBDB"/>
<path d="M75.8861 62.9797L53.2979 0L47.1755 3.91151L69.7638 66.8912L75.8861 62.9797Z" fill="#C7C7C7"/>
<path d="M57.7795 12.4969L55.6709 6.61789L49.5486 10.5294L51.6571 16.4084L57.7795 12.4969Z" fill="#DBDBDB"/>
<path d="M61.2642 22.2116L60.4819 20.0304L54.3596 23.9419L55.1419 26.1231L61.2642 22.2116Z" fill="#DBDBDB"/>
<path d="M73.3674 55.9646L71.2588 50.0856L65.1364 53.9971L67.245 59.8761L73.3674 55.9646Z" fill="#DBDBDB"/>
<path d="M51.0552 44.5504H6.81396V50.4075H51.0552V44.5504Z" fill="#DBDBDB"/>
<path d="M27.9898 45.7465H10.9736V49.2612H27.9898V45.7465Z" fill="#EBEBEB"/>
<path d="M50.9542 22.138H11.231V34.4112H50.9542V22.138Z" fill="#C7C7C7"/>
<path d="M46.7432 22.138H43.0415V34.4112H46.7432V22.138Z" fill="#DBDBDB"/>
<path d="M40.6104 22.138H39.1748V34.4112H40.6104V22.138Z" fill="#DBDBDB"/>
<path d="M56.4517 59.4644H5.16553V66.8918H56.4517V59.4644Z" fill="#A6A6A6"/>
<path d="M51.0145 59.4644H46.2339V66.8918H51.0145V59.4644Z" fill="#C7C7C7"/>
<path d="M20.5174 59.4644H15.7368V66.8918H20.5174V59.4644Z" fill="#C7C7C7"/>
<path d="M25.6441 59.4644H23.7915V66.8918H25.6441V59.4644Z" fill="#C7C7C7"/>
<path d="M31.8442 34.4112H3.44971V44.5504H31.8442V34.4112Z" fill="#A6A6A6"/>
<path d="M58.0916 34.4112H31.8442V44.5504H58.0916V34.4112Z" fill="#A6A6A6"/>
<path d="M31.8442 35.4628H3.44971V43.4965H31.8442V35.4628Z" fill="white"/>
<path d="M31.8443 43.4988C31.8052 43.4467 3.3681 43.6504 3.41069 43.4988V35.4628V35.4035H3.45506C3.45506 35.4035 31.8585 35.4438 31.8638 35.4414C31.8691 35.4391 31.846 43.4775 31.8496 43.4941L31.8443 43.4988ZM31.8443 43.4988L31.8212 35.4628C31.9081 35.522 3.42844 35.503 3.44263 35.522L3.487 35.4628V43.4988C3.23146 43.3591 31.9028 43.5415 31.8425 43.4988H31.8443Z" fill="#263238"/>
<path d="M5.9126 37.1159C8.88674 37.0607 11.8621 37.022 14.8386 36.9999L18.8739 36.9643L27.7999 36.9999C30.774 37.0188 28.8646 37.0614 31.837 37.1159C28.861 37.1728 30.7722 37.213 27.7999 37.2343L18.8739 37.2699L14.8386 37.2343C11.8668 37.2138 8.89147 37.1743 5.9126 37.1159Z" fill="#DBDBDB"/>
<path d="M5.9126 38.6933C8.88674 38.6364 11.8621 38.597 14.8386 38.5749L18.8739 38.5393L27.7999 38.5749C30.774 38.5962 28.8646 38.6364 31.837 38.6933C28.861 38.7501 30.7722 38.7904 27.7999 38.8117L18.8739 38.8449L14.8386 38.8093C11.8668 38.7904 8.89147 38.7517 5.9126 38.6933Z" fill="#DBDBDB"/>
<path d="M5.9126 40.2683C8.88674 40.2146 11.8621 40.1759 14.8386 40.1522L18.8739 40.1167L27.7999 40.1522C30.774 40.1712 28.8646 40.2138 31.837 40.2683C28.861 40.3251 30.7722 40.3654 27.7999 40.3867L18.8739 40.4222L14.8386 40.3867C11.8668 40.3662 8.89147 40.3267 5.9126 40.2683Z" fill="#DBDBDB"/>
<path d="M5.9126 41.8457C8.88674 41.7888 11.8621 41.7501 14.8386 41.7296L18.8739 41.6917L27.7999 41.7272C30.774 41.7486 28.8646 41.7888 31.837 41.8457C28.861 41.9025 30.7722 41.9428 27.7999 41.9641L18.8739 41.9972L14.8457 41.9522C11.8692 41.9396 8.89147 41.9041 5.9126 41.8457Z" fill="#DBDBDB"/>
<path d="M41.3538 34.4112H37.6592V44.5504H41.3538V34.4112Z" fill="#EBEBEB"/>
<path d="M56.7339 34.4112H54.2495V44.5504H56.7339V34.4112Z" fill="#EBEBEB"/>
<path d="M23.2679 22.1475L48.4487 22.1475V11.1745L23.2679 11.1745V22.1475Z" fill="#DBDBDB"/>
<path d="M4.1491 22.1475L23.2681 22.1475V11.1745L4.1491 11.1745V22.1475Z" fill="#DBDBDB"/>
<path d="M23.2679 21.0083L48.4487 21.0083V12.3138L23.2679 12.3138V21.0083Z" fill="white"/>
<path d="M23.268 12.3138L48.4861 12.264C48.4861 12.2996 48.4861 20.9656 48.4861 21.0083V21.0675H48.4417C48.4417 21.0675 23.2432 21.0296 23.2432 21.0319C23.2432 21.0343 23.2662 12.3375 23.2609 12.3138H23.268ZM23.268 12.3138L23.2858 21.0083C23.1775 20.942 48.4719 20.9727 48.4488 20.9491L48.4045 21.0083C48.4222 21.0462 48.3548 12.0769 48.4488 12.3659L23.268 12.3138Z" fill="#263238"/>
<path d="M46.8197 19.2154C44.8571 19.2596 42.8944 19.2904 40.9318 19.3077L35.0438 19.3361L29.1594 19.3125C27.1968 19.2967 25.2341 19.2659 23.2715 19.2201C25.2341 19.1759 27.1968 19.1451 29.1594 19.1277L35.0474 19.0993L40.9353 19.1277C42.8956 19.1451 44.8571 19.1743 46.8197 19.2154Z" fill="#DBDBDB"/>
<path d="M46.8197 17.5148C44.8571 17.5575 42.8944 17.5883 40.9318 17.6072L35.0438 17.6356L29.1594 17.6072C27.1968 17.5914 25.2341 17.5606 23.2715 17.5148C25.2341 17.4706 27.1968 17.4398 29.1594 17.4225L35.0474 17.394L40.9353 17.4225C42.8956 17.4398 44.8571 17.4706 46.8197 17.5148Z" fill="#DBDBDB"/>
<path d="M46.8197 15.8096C44.8571 15.8522 42.8944 15.8822 40.9318 15.8996L35.0438 15.928L29.1594 15.8996C27.1968 15.8822 25.2341 15.8514 23.2715 15.8072C25.2341 15.763 27.1968 15.7314 29.1594 15.7125L35.0474 15.6864L40.9353 15.7148C42.8956 15.7306 44.8571 15.7622 46.8197 15.8096Z" fill="#DBDBDB"/>
<path d="M46.8197 14.1019C44.8571 14.1461 42.8944 14.1769 40.9318 14.1943L35.0438 14.2227L29.1594 14.1943C27.1968 14.1801 25.2341 14.1493 23.2715 14.1019C25.2341 14.0593 27.1968 14.0285 29.1594 14.0096L35.0474 13.9835L40.9353 14.0096C42.8956 14.0269 44.8571 14.0577 46.8197 14.1019Z" fill="#DBDBDB"/>
<path d="M10.7731 11.1746H7.19385V22.1475H10.7731V11.1746Z" fill="#C7C7C7"/>
<path d="M3.30615 66.8918C26.5776 66.7473 52.6811 66.7449 75.9525 66.8918C52.6811 67.0386 26.5776 67.0363 3.30615 66.8918Z" fill="#263238"/>
<path d="M79.9967 80.5671L39.8298 70.6078L1.07373 85.4437L41.0383 95.7582L79.9967 80.5671Z" fill="white"/>
<path d="M79.9967 80.5576C79.9967 80.5576 39.7925 70.6339 39.8369 70.6362L1.08613 85.5005V85.3868C1.08613 85.3868 41.0791 95.7344 41.0347 95.7297L80.0002 80.5718L79.9967 80.5576ZM79.9967 80.5576L41.0383 95.7889C41.0383 95.7889 1.06839 85.5005 1.06661 85.5005L0.88916 85.4555L1.06661 85.3868L39.8351 70.577C39.8351 70.577 79.9896 80.5694 79.9967 80.5576Z" fill="#263238"/>
<path d="M41.6023 92.7361C38.9848 91.9426 36.3337 91.2013 33.6772 90.4695C31.0207 89.7376 28.3535 89.0342 25.6686 88.3379C22.9838 87.6416 20.2971 86.9666 17.5874 86.3176L13.5201 85.3489C12.1537 85.0458 10.7962 84.7237 9.4209 84.4323C10.7252 84.835 12.0508 85.2045 13.3657 85.5929L17.3425 86.6989C20.0043 87.4379 22.6661 88.1366 25.3528 88.8305C28.0394 89.5245 30.7243 90.2018 33.4341 90.8508C36.1438 91.4997 38.8535 92.1463 41.6023 92.7361Z" fill="#DBDBDB"/>
<path d="M31.3067 87.4545C28.4496 86.4787 25.4844 85.6734 22.5014 84.8942C19.5183 84.115 16.4927 83.4021 13.3784 82.8266C16.2425 83.7952 19.2007 84.61 22.1837 85.3892C25.1667 86.1684 28.1941 86.8789 31.3067 87.4545Z" fill="#DBDBDB"/>
<path d="M45.5615 88.5084C43.2741 87.7979 40.9477 87.1442 38.6266 86.4976C36.3055 85.851 33.956 85.2329 31.6083 84.6195C29.2605 84.006 26.8968 83.4163 24.5101 82.855L20.9379 82.0142C19.7365 81.7513 18.544 81.4718 17.332 81.2231C18.4731 81.5831 19.6389 81.9123 20.7835 82.2558L24.267 83.2363C26.5898 83.8876 28.9376 84.501 31.2853 85.1145C33.633 85.7279 35.9967 86.3152 38.3835 86.8766C40.7702 87.4379 43.1428 88.0039 45.5615 88.5084Z" fill="#DBDBDB"/>
<path d="M47.4368 86.365C45.3251 85.7018 43.1779 85.0908 41.0254 84.4892C38.8729 83.8876 36.7026 83.305 34.5288 82.746C32.355 82.1871 30.1652 81.6329 27.963 81.1165L24.6517 80.3421C23.5372 80.1052 22.4317 79.8447 21.3066 79.6315C22.3607 79.9679 23.4361 80.2734 24.5008 80.5955L27.7074 81.505C29.8564 82.1113 32.0302 82.6892 34.204 83.2481C36.3779 83.8071 38.5677 84.3589 40.7699 84.8776C42.9721 85.3963 45.1867 85.9055 47.4368 86.365Z" fill="#DBDBDB"/>
<path d="M57.4367 86.3247C54.821 85.5289 52.1699 84.79 49.5134 84.0581C46.8569 83.3263 44.1897 82.6229 41.5049 81.9265C38.82 81.2302 36.1333 80.5576 33.4182 79.9039L29.351 78.9352C27.9846 78.6297 26.627 78.3076 25.25 78.0186C26.5561 78.4213 27.8817 78.7908 29.1948 79.1768L33.1734 80.2852C35.8263 81.0218 38.497 81.7205 41.1837 82.4168C43.8703 83.1131 46.5552 83.7881 49.2649 84.4347C51.9747 85.0813 54.6897 85.735 57.4367 86.3247Z" fill="#DBDBDB"/>
<path d="M57.7685 83.7858C55.4615 83.0752 53.1067 82.4073 50.7519 81.7537C48.3971 81.1 46.0263 80.4723 43.6537 79.8589C41.2811 79.2455 38.8873 78.6439 36.4792 78.0731L32.8662 77.2205C31.6489 76.9552 30.444 76.6734 29.2178 76.4223C30.373 76.7847 31.546 77.1163 32.7101 77.4644L36.2343 78.4544C38.5856 79.1152 40.9617 79.7358 43.3325 80.3492C45.7033 80.9626 48.0989 81.5666 50.507 82.135C52.9151 82.7034 55.3249 83.2718 57.7685 83.7858Z" fill="#DBDBDB"/>
<path d="M65.3601 83.1179C62.7444 82.3244 60.0933 81.5831 57.4368 80.8513C54.7803 80.1194 52.1131 79.416 49.4282 78.7197C46.7433 78.0234 44.0567 77.3484 41.3469 76.6994L37.2797 75.7307C35.9133 75.4252 34.5558 75.1031 33.1787 74.8142C34.4848 75.2168 35.8104 75.5863 37.1235 75.9747L41.1021 77.0807C43.7639 77.8173 46.4257 78.516 49.1124 79.2123C51.799 79.9086 54.4839 80.5836 57.1937 81.2302C59.9034 81.8768 62.6078 82.5281 65.3601 83.1179Z" fill="#DBDBDB"/>
<path d="M56.1537 78.1181C53.1086 77.1044 49.9658 76.2423 46.8018 75.4157C43.6378 74.5892 40.4294 73.8313 37.1323 73.2084C40.1774 74.2221 43.3184 75.0865 46.4842 75.9107C49.65 76.735 52.8584 77.4952 56.1537 78.1181Z" fill="#DBDBDB"/>
</svg>
