<svg width="28" height="37" viewBox="0 0 28 37" fill="none" xmlns="http://www.w3.org/2000/svg">
<path d="M2.18752 19.8438C2.18752 14.4072 6.59471 10 12.0313 10C17.4678 10 21.875 14.4072 21.875 19.8438V24.0081L23.9843 29.2813C24.1191 29.6183 24.0779 30.0002 23.8744 30.3007C23.671 30.6012 23.3317 30.7812 22.9687 30.7812H1.09375C0.730822 30.7812 0.391526 30.6012 0.188056 30.3007C-0.0154142 30.0002 -0.0565559 29.6183 0.0782345 29.2813L2.18752 24.0081V19.8438ZM7.79286 32.9688C8.2759 34.8603 9.98469 36.25 12.0312 36.25C14.0778 36.25 15.7866 34.8603 16.2696 32.9688H7.79286Z" fill="#904B74"/>
<circle cx="18" cy="10" r="10" fill="#F22C4D"/>
</svg>
