<svg width="24" height="25" viewBox="0 0 24 25" fill="none" xmlns="http://www.w3.org/2000/svg">
<path d="M19 13.9997C19 13.3183 19.2726 12.7006 19.7146 12.2497H13C12.0335 12.2497 11.25 11.4662 11.25 10.4997V2.50293C6.11885 2.63548 2 6.83659 2 11.9997C2 17.0787 5.98572 21.2268 11 21.4868V19.9997C11 18.619 12.1193 17.4997 13.5 17.4997C14.0628 17.4997 14.5822 17.6857 15 17.9995V16.9997C15 15.619 16.1193 14.4997 17.5 14.4997C18.0628 14.4997 18.5822 14.6857 19 14.9995V13.9997ZM12.75 2.58121V10.4997C12.75 10.6378 12.8619 10.7497 13 10.7497H20.9185C20.3603 6.5028 16.9969 3.1394 12.75 2.58121ZM21.5 12.5C20.6716 12.5 20 13.1716 20 14V22C20 22.8284 20.6716 23.5 21.5 23.5C22.3284 23.5 23 22.8284 23 22V14C23 13.1716 22.3284 12.5 21.5 12.5ZM13.5 18.5C12.6716 18.5 12 19.1716 12 20V22C12 22.8284 12.6716 23.5 13.5 23.5C14.3284 23.5 15 22.8284 15 22V20C15 19.1716 14.3284 18.5 13.5 18.5ZM16 17C16 16.1716 16.6716 15.5 17.5 15.5C18.3284 15.5 19 16.1716 19 17V22C19 22.8284 18.3284 23.5 17.5 23.5C16.6716 23.5 16 22.8284 16 22V17Z" fill="white"/>
</svg>
