<svg width="27" height="28" viewBox="0 0 27 28" fill="none" xmlns="http://www.w3.org/2000/svg">
<path d="M10.089 27.1336C11.1054 27.3761 12.1468 27.4986 13.1917 27.4986C14.2344 27.4975 15.2734 27.3743 16.2875 27.1315C16.5541 27.0673 16.7944 26.9225 16.9758 26.7168C17.1571 26.5111 17.2706 26.2546 17.3009 25.982L17.5333 23.8707C17.5725 23.4931 17.7453 23.142 18.0204 22.8805C18.2956 22.6189 18.655 22.4642 19.0341 22.4441C19.2861 22.4332 19.5373 22.4803 19.7683 22.5816L21.6981 23.4279C21.8659 23.5034 22.0476 23.5429 22.2316 23.5441C22.4156 23.5453 22.5978 23.5081 22.7665 23.4348C22.936 23.3624 23.0882 23.2551 23.2134 23.1199C24.6324 21.5905 25.6917 19.7633 26.314 17.7719C26.3955 17.5077 26.3929 17.2248 26.3067 16.9621C26.2205 16.6994 26.0549 16.47 25.8328 16.3054L24.1181 15.0404C23.9139 14.8921 23.7477 14.6976 23.6331 14.4727C23.5185 14.2478 23.4587 13.999 23.4587 13.7466C23.4587 13.4942 23.5185 13.2453 23.6331 13.0205C23.7477 12.7956 23.9139 12.601 24.1181 12.4527L25.8273 11.1904C26.0501 11.0257 26.2162 10.7957 26.3024 10.5323C26.3886 10.2689 26.3908 9.98522 26.3085 9.72057C25.686 7.72892 24.6254 5.90197 23.2045 4.37387C23.0162 4.17265 22.7701 4.03483 22.5002 3.97941C22.2302 3.924 21.9498 3.95374 21.6975 4.06451L19.7683 4.91426C19.5682 5.00443 19.3512 5.0513 19.1317 5.05177C18.7356 5.05116 18.3536 4.90429 18.0592 4.63937C17.7647 4.37444 17.5784 4.0101 17.536 3.61626L17.3023 1.51251C17.2724 1.23639 17.1569 0.976529 16.9719 0.769304C16.787 0.562079 16.542 0.417863 16.271 0.356821C15.2623 0.131616 14.2328 0.0120257 13.1993 0C12.1584 0.0120176 11.1216 0.131837 10.1055 0.357513C9.83488 0.418208 9.58999 0.561953 9.40508 0.768675C9.22018 0.975396 9.10453 1.23476 9.07427 1.51045L8.83983 3.61556C8.79591 4.00983 8.60816 4.37406 8.31252 4.63857C8.01051 4.89505 7.62991 5.0406 7.23383 5.05107C7.01537 5.05093 6.7993 5.00551 6.59926 4.9177L4.67426 4.06795C4.42112 3.95618 4.13944 3.92603 3.86838 3.98172C3.59732 4.03741 3.35034 4.17618 3.16176 4.3787C1.74257 5.9071 0.682969 7.73339 0.0604504 9.72401C-0.0217566 9.98856 -0.019595 10.2721 0.0666398 10.5354C0.152875 10.7987 0.318905 11.0285 0.541698 11.1932L2.25288 12.4554C2.45544 12.605 2.62015 12.8 2.73381 13.0247C2.84746 13.2493 2.90692 13.4975 2.90739 13.7493C2.90762 14.0015 2.84849 14.2503 2.73479 14.4754C2.62109 14.7005 2.456 14.8957 2.25288 15.0453L0.541016 16.3096C0.318497 16.4741 0.152642 16.7038 0.0664195 16.9668C-0.019803 17.2297 -0.0221358 17.513 0.059758 17.7774C0.68093 19.7699 1.7404 21.598 3.16039 23.1275C3.28374 23.261 3.4336 23.3673 3.60039 23.4396C3.76865 23.5136 3.95044 23.5518 4.13424 23.5518C4.31803 23.5518 4.49981 23.5136 4.66807 23.4396L6.60614 22.5892C6.80607 22.5011 7.0222 22.4557 7.2407 22.4558H7.2462C7.64071 22.4563 8.02126 22.6019 8.31538 22.8649C8.6095 23.1278 8.79666 23.4897 8.8412 23.8817L9.07358 25.9834C9.10394 26.2563 9.21774 26.5132 9.39946 26.719C9.58118 26.9248 9.82199 27.0696 10.089 27.1336ZM13.1867 18.0462C10.8136 18.0462 8.88983 16.1224 8.88983 13.7493C8.88983 11.3762 10.8136 9.45245 13.1867 9.45245C15.5598 9.45245 17.4836 11.3762 17.4836 13.7493C17.4836 16.1224 15.5598 18.0462 13.1867 18.0462Z" fill="#904B74"/>
</svg>
