<svg width="32" height="30" viewBox="0 0 32 30" fill="none" xmlns="http://www.w3.org/2000/svg">
<path opacity="0.5" d="M30.0035 15C30.0035 22.7313 23.7315 29 15.9931 29C8.25469 29 1.98267 22.7313 1.98267 15C1.98267 7.26867 8.25469 1 15.9931 1C23.7315 1 30.0035 7.26867 30.0035 15Z" stroke="white" stroke-width="2"/>
<path fill-rule="evenodd" clip-rule="evenodd" d="M23.9303 7.99181C23.3785 8.38503 22.7846 8.64985 22.1617 8.76943C22.7976 8.15792 23.2859 7.1901 23.5156 6.03691C22.9212 6.60347 22.2613 7.01355 21.5604 7.23585C20.9985 6.27605 20.1975 5.67578 19.3124 5.67578C17.6119 5.67578 16.233 7.88748 16.233 10.6152C16.233 11.002 16.2605 11.3792 16.3131 11.7411C13.7535 11.5357 11.4845 9.56872 9.96558 6.5802C9.70041 7.30968 9.54882 8.15793 9.54882 9.06315C9.54882 10.7765 10.0917 12.2884 10.9187 13.1744C10.4134 13.1487 9.93906 12.9264 9.5233 12.5564V12.6182C9.5233 15.0121 10.5855 17.0079 11.9933 17.4629C11.7352 17.5753 11.463 17.6363 11.1823 17.6363C10.9837 17.6363 10.7906 17.605 10.6025 17.5472C10.9942 19.5093 12.1319 20.9378 13.4793 20.9779C12.4256 22.302 11.0978 23.0925 9.65488 23.0925C9.40573 23.0925 9.16057 23.0692 8.91992 23.0227C10.2828 24.4239 11.9013 25.2424 13.6404 25.2424C19.3044 25.2424 22.4019 17.7157 22.4019 11.189C22.4019 10.9747 22.3994 10.7612 22.3929 10.5502C22.9953 9.85201 23.5176 8.9821 23.9303 7.99181Z" fill="white"/>
</svg>
