<svg width="31" height="30" viewBox="0 0 31 30" fill="none" xmlns="http://www.w3.org/2000/svg">
<path d="M29.8021 15C29.8021 22.7313 23.5301 29 15.7917 29C8.05327 29 1.78125 22.7313 1.78125 15C1.78125 7.26867 8.05327 1 15.7917 1C23.5301 1 29.8021 7.26867 29.8021 15Z" stroke="white" stroke-width="2"/>
<path fill-rule="evenodd" clip-rule="evenodd" d="M22.2367 8.37807C22.4541 8.77717 22.6107 9.27386 22.691 9.81868C23.1534 13.2357 23.0466 18.6324 22.7 22.1813C22.6197 22.7261 22.4631 23.2228 22.2457 23.6219C22.0283 24.021 21.7577 24.3086 21.461 24.456C20.3745 25 16.0019 25 16.0019 25C16.0019 25 11.6293 25 10.5428 24.456C10.2461 24.3086 9.97551 24.021 9.75812 23.6219C9.54073 23.2228 9.38408 22.7261 9.30377 22.1813C8.83868 18.7791 8.96617 13.3791 9.2948 9.83517C9.3751 9.29035 9.53175 8.79365 9.74914 8.39455C9.96654 7.99545 10.2371 7.70786 10.5339 7.56044C11.6203 7.01648 15.9929 7 15.9929 7C15.9929 7 20.3656 7 21.452 7.54395C21.7487 7.69138 22.0193 7.97897 22.2367 8.37807ZM18.2286 16L14.6012 19.8571V12.1428L18.2286 16Z" fill="white"/>
</svg>
